{"glyphs":{"0":{"ha":1076,"x_min":93,"x_max":1143,"o":"m 451 403 q 447 354 447 378 q 465 295 447 318 q 533 272 482 272 l 640 272 q 696 283 674 272 q 733 311 718 293 q 755 353 747 329 q 767 403 763 376 l 788 518 q 790 528 789 524 q 790 536 790 532 l 790 554 l 790 563 q 789 572 790 569 l 1126 572 l 1072 257 q 1031 167 1064 213 q 954 84 999 121 q 860 24 910 47 q 771 0 811 0 l 306 0 q 231 20 268 0 q 163 73 193 40 q 113 147 132 106 q 93 229 93 188 q 94 243 93 236 q 96 257 94 250 l 150 572 l 488 572 q 472 518 476 542 l 451 403 m 1140 649 l 1138 633 l 713 633 l 703 633 l 161 633 l 164 649 q 205 739 172 693 q 282 822 238 785 q 376 882 326 858 q 465 906 425 906 l 931 906 q 1004 885 967 906 q 1073 833 1042 865 q 1124 759 1104 800 q 1143 676 1143 718 q 1142 663 1143 669 q 1140 649 1142 656 z "},"1":{"ha":529,"x_min":150,"x_max":639,"o":"m 479 0 l 150 0 l 250 572 l 579 572 l 479 0 m 210 906 l 639 906 l 590 633 l 161 633 l 210 906 z "},"2":{"ha":1044,"x_min":161,"x_max":1043,"o":"m 994 0 l 331 0 q 219 40 258 0 q 181 147 181 81 l 181 165 q 181 175 181 171 q 183 185 182 179 q 222 292 193 242 q 292 388 251 342 q 383 480 333 435 q 486 572 433 525 l 904 572 q 835 491 874 531 q 756 414 797 451 q 672 341 714 376 q 593 272 631 306 l 1043 272 l 994 0 m 161 633 l 210 906 l 803 906 q 869 893 838 906 q 922 858 900 881 q 958 804 944 835 q 971 736 971 774 q 967 697 971 718 q 962 676 964 686 q 954 656 960 667 q 943 633 949 643 l 161 633 z "},"3":{"ha":936,"x_min":50,"x_max":1003,"o":"m 985 572 q 900 461 951 503 q 931 400 918 435 q 943 326 943 365 q 942 309 943 318 q 940 292 942 300 l 938 272 q 897 176 929 224 q 818 88 864 128 q 719 24 772 49 q 614 0 665 0 l 50 0 l 99 272 l 533 272 q 587 280 572 272 q 604 303 601 288 q 606 313 606 304 q 592 331 606 326 q 543 335 579 335 l 144 335 l 186 571 l 585 571 l 603 571 q 618 572 614 571 l 985 572 m 161 633 l 210 906 l 774 906 q 863 885 821 906 q 935 831 904 864 q 985 754 967 797 q 1003 667 1003 711 q 1002 650 1003 658 q 1000 633 1001 642 l 161 633 z "},"4":{"ha":1054,"x_min":108,"x_max":1164,"o":"m 675 0 l 733 333 l 108 333 l 150 572 l 1104 572 l 1004 0 l 675 0 m 1164 906 l 1115 633 l 786 633 l 835 906 l 1164 906 m 539 906 l 490 633 l 161 633 l 210 906 l 539 906 z "},"5":{"ha":1044,"x_min":50,"x_max":1154,"o":"m 50 0 l 99 272 l 549 272 q 493 341 524 306 q 433 414 463 376 q 379 491 404 451 q 339 572 354 531 l 757 572 q 820 490 789 531 q 876 409 851 450 q 915 326 900 368 q 931 236 931 283 q 926 185 931 211 q 856 53 911 106 q 714 0 801 0 l 50 0 m 1106 633 l 324 633 q 322 644 322 639 q 321 656 321 649 l 321 667 q 325 697 321 681 l 361 906 l 1154 906 l 1106 633 z "},"6":{"ha":1071,"x_min":117,"x_max":1181,"o":"m 518 572 q 496 544 503 557 l 928 544 q 997 527 967 544 q 1046 483 1026 510 q 1075 428 1065 457 q 1085 374 1085 399 q 1083 356 1085 357 l 1057 208 q 1026 126 1049 164 q 971 60 1003 88 q 900 16 939 32 q 821 0 861 0 l 578 0 q 384 19 469 0 q 239 78 299 38 q 148 183 179 118 q 117 339 117 247 q 119 392 117 364 q 126 450 121 419 l 128 454 q 157 572 138 518 l 518 572 m 1133 635 l 714 635 q 693 634 703 635 q 674 633 683 633 l 183 633 q 401 843 258 781 q 738 906 543 906 l 1181 906 l 1133 635 m 472 338 q 517 294 488 311 q 597 272 546 276 l 742 272 l 746 300 l 746 304 q 736 326 746 314 q 719 338 726 338 l 472 338 z "},"7":{"ha":893,"x_min":151,"x_max":1003,"o":"m 479 0 l 151 0 l 183 185 q 222 292 193 242 q 291 388 250 342 q 383 480 332 435 q 486 572 433 525 l 903 572 q 838 497 874 533 q 762 427 801 461 q 680 359 722 393 q 597 290 638 325 q 556 239 575 271 q 523 168 538 207 q 497 85 508 129 q 479 0 486 42 m 161 633 l 210 906 l 1003 906 l 967 697 q 962 676 964 686 q 954 656 960 667 q 943 633 949 643 l 161 633 z "},"8":{"ha":1082,"x_min":93,"x_max":1149,"o":"m 1131 572 q 1046 461 1097 503 q 1076 400 1064 435 q 1089 326 1089 365 q 1088 309 1089 318 q 1086 292 1088 300 l 1083 272 q 1042 176 1075 224 q 964 88 1010 128 q 865 24 918 49 q 760 0 811 0 l 322 0 q 233 21 275 0 q 160 75 192 42 q 111 151 129 108 q 93 239 93 194 q 94 256 93 247 q 96 272 94 264 l 99 292 q 136 385 107 340 q 200 461 165 429 q 168 510 181 481 q 153 572 156 539 l 518 572 q 532 571 522 571 l 551 571 l 731 571 l 749 571 q 764 572 760 571 l 1131 572 m 158 633 l 158 635 q 199 731 167 682 q 278 818 232 779 q 377 881 324 857 q 482 906 431 906 l 919 906 q 1008 885 967 906 q 1081 831 1050 864 q 1131 754 1113 797 q 1149 667 1149 711 q 1148 650 1149 658 q 1146 633 1147 642 l 563 633 l 549 633 l 158 633 m 438 303 l 438 297 q 451 278 438 285 q 500 272 465 272 l 679 272 q 733 280 718 272 q 750 303 747 288 q 751 313 751 304 q 738 331 751 326 q 689 335 725 335 l 510 335 q 456 328 469 335 q 438 303 442 322 z "},"9":{"ha":1056,"x_min":136,"x_max":1165,"o":"m 767 513 l 776 572 l 1106 572 l 1006 0 l 676 0 l 719 244 l 365 244 q 279 267 321 244 q 206 324 238 289 q 155 402 174 358 q 136 490 136 446 q 137 506 136 499 q 139 521 138 514 l 147 572 l 486 572 q 485 557 485 571 q 501 524 485 535 q 561 513 517 513 l 767 513 m 1165 906 l 1117 633 l 158 633 q 200 729 168 681 q 277 817 232 778 q 376 881 322 856 q 482 906 429 906 l 1165 906 z "}," ":{"ha":489,"x_min":0,"x_max":0,"o":""}," ":{"ha":489,"x_min":0,"x_max":0,"o":""},"!":{"ha":429,"x_min":50,"x_max":539,"o":"m 539 906 l 490 633 l 161 633 l 210 906 l 539 906 m 50 0 l 99 272 l 428 272 l 379 0 l 50 0 m 438 333 l 108 333 l 150 572 l 479 572 l 438 333 z "},"\"":{"ha":824,"x_min":131,"x_max":933,"o":"m 556 633 l 604 906 l 933 906 l 889 654 q 877 644 882 649 q 865 633 872 639 l 556 633 m 161 633 l 210 906 l 539 906 l 494 654 q 483 644 488 649 q 471 633 478 639 l 161 633 m 131 454 l 151 572 l 392 572 q 296 511 346 540 q 192 454 246 482 l 131 454 m 525 454 l 546 572 l 786 572 q 690 511 740 540 q 586 454 640 482 l 525 454 z "},"#":{"ha":1090,"x_min":82,"x_max":1168,"o":"m 1072 185 l 964 185 l 932 0 l 603 0 l 635 185 l 519 185 l 488 0 l 158 0 l 190 185 l 82 185 l 125 424 l 233 424 l 243 482 l 135 482 l 150 572 l 1140 572 l 1125 482 l 1017 482 l 1007 424 l 1115 424 l 1072 185 m 161 633 l 178 721 l 286 721 l 318 906 l 647 906 l 615 721 l 731 721 l 763 906 l 1092 906 l 1060 721 l 1168 721 l 1151 633 l 161 633 m 688 482 l 572 482 l 563 424 l 678 424 l 688 482 z "},"$":{"ha":792,"x_min":50,"x_max":900,"o":"m 540 -108 l 211 -108 l 231 0 l 50 0 l 99 272 l 397 272 q 342 341 372 306 q 282 414 311 376 q 228 491 253 451 q 188 572 203 531 l 606 572 q 669 490 638 531 q 724 410 700 450 q 764 327 749 369 q 779 238 779 285 q 778 212 779 225 q 774 185 776 199 q 747 111 767 144 q 700 53 728 78 q 637 14 672 28 q 563 0 601 0 l 560 0 l 540 -108 m 172 633 q 170 644 171 639 q 169 656 169 649 l 169 667 q 174 697 169 681 q 201 775 181 739 q 250 838 221 811 q 315 883 279 865 q 390 904 351 900 l 410 1015 l 739 1015 l 719 906 l 900 906 l 851 633 l 172 633 z "},"%":{"ha":1488,"x_min":161,"x_max":1486,"o":"m 1169 0 q 998 41 1061 0 q 935 175 935 82 q 940 229 935 218 l 940 231 q 1043 406 963 353 q 1250 458 1124 458 q 1423 418 1360 458 q 1486 286 1486 378 q 1485 258 1486 272 q 1481 231 1483 244 l 1481 229 q 1376 53 1458 106 q 1169 0 1294 0 m 726 0 l 438 0 l 742 572 l 1032 572 l 726 0 m 447 744 q 387 728 403 744 q 364 679 371 713 l 364 678 q 362 665 363 671 q 361 653 361 658 q 364 633 361 642 l 161 633 q 167 676 161 667 l 167 678 q 269 853 189 800 q 476 906 350 906 q 649 865 586 906 q 713 733 713 825 q 711 706 713 719 q 707 678 710 692 l 707 676 q 701 655 704 665 q 696 633 699 644 l 489 633 q 508 678 501 646 l 508 679 q 510 692 510 686 q 511 704 511 699 q 497 735 511 725 q 447 744 483 744 m 919 906 l 1210 906 l 1064 633 l 775 633 l 919 906 m 396 447 q 243 476 303 447 q 167 572 183 506 l 669 572 q 561 476 631 506 q 396 447 492 447 m 1221 297 q 1160 281 1176 297 q 1138 232 1144 265 l 1138 231 q 1135 218 1136 224 q 1135 207 1135 213 q 1148 176 1135 186 q 1197 165 1161 165 q 1259 181 1242 165 q 1282 231 1276 197 l 1282 232 q 1284 245 1283 239 q 1285 257 1285 251 q 1271 288 1285 278 q 1221 297 1257 297 z "},"&":{"ha":936,"x_min":93,"x_max":1046,"o":"m 689 -108 l 360 -108 l 379 0 l 322 0 q 233 21 275 0 q 160 76 192 42 q 111 153 129 110 q 93 240 93 196 l 99 293 q 136 385 107 342 q 200 461 165 429 q 168 510 181 481 q 153 572 156 539 l 518 572 q 532 571 522 571 l 551 571 l 950 571 l 908 335 l 510 335 q 456 328 469 335 q 438 303 442 322 l 438 297 q 451 278 438 285 q 500 272 465 272 l 935 272 l 886 0 l 708 0 l 689 -108 m 158 633 l 158 635 q 199 731 167 682 q 278 818 232 779 q 377 881 324 857 q 482 906 431 906 l 539 906 l 558 1015 l 888 1015 l 868 906 l 1046 906 l 997 633 l 158 633 z "},"'":{"ha":429,"x_min":131,"x_max":539,"o":"m 161 633 l 210 906 l 539 906 l 494 654 q 483 644 488 649 q 471 633 478 639 l 161 633 m 131 454 l 151 572 l 392 572 q 296 511 346 540 q 192 454 246 482 l 131 454 z "},"(":{"ha":629,"x_min":93,"x_max":739,"o":"m 579 0 l 306 0 q 231 20 268 0 q 163 74 193 40 q 113 148 132 107 q 93 231 93 189 q 94 244 93 238 q 96 257 94 250 l 150 572 l 492 572 q 478 539 483 557 q 469 501 474 521 l 451 403 q 447 354 447 378 q 465 295 447 318 q 533 272 482 272 l 628 272 l 579 0 m 690 633 l 161 633 l 164 649 q 205 739 172 693 q 282 822 238 785 q 376 882 326 858 q 465 906 425 906 l 739 906 l 690 633 z "},")":{"ha":629,"x_min":50,"x_max":696,"o":"m 50 0 l 99 272 l 193 272 q 249 283 226 272 q 285 311 271 293 q 308 353 300 329 q 319 403 315 376 l 338 501 q 342 553 342 528 q 341 563 342 558 q 340 572 340 567 l 679 572 l 625 257 q 584 167 617 213 q 507 84 551 121 q 413 24 463 47 q 324 0 364 0 l 50 0 m 161 633 l 210 906 l 483 906 q 557 885 519 906 q 626 833 594 865 q 676 759 657 800 q 696 676 696 718 q 695 663 696 669 q 693 649 694 656 l 690 633 l 161 633 z "},"*":{"ha":407,"x_min":167,"x_max":522,"o":"m 354 635 l 326 706 l 275 635 l 179 721 l 247 779 l 167 801 l 236 926 l 299 886 l 300 972 l 447 972 l 422 886 l 499 922 l 522 797 l 440 779 l 479 719 l 354 635 z "},"+":{"ha":657,"x_min":108,"x_max":707,"o":"m 236 176 l 264 333 l 108 333 l 150 572 l 707 572 l 665 333 l 508 333 l 481 176 l 236 176 m 317 633 l 335 733 l 579 733 l 561 633 l 317 633 z "},",":{"ha":429,"x_min":18,"x_max":428,"o":"m 18 -179 l 99 272 l 428 272 l 383 21 q 243 -85 319 -37 q 79 -179 167 -133 l 18 -179 z "},"-":{"ha":565,"x_min":108,"x_max":615,"o":"m 574 333 l 108 333 l 150 572 l 615 572 l 574 333 z "},".":{"ha":429,"x_min":50,"x_max":428,"o":"m 50 0 l 99 272 l 428 272 l 379 0 l 50 0 z "},"/":{"ha":657,"x_min":22,"x_max":794,"o":"m 358 0 l 22 0 l 297 572 l 633 572 l 358 0 m 457 906 l 794 906 l 663 633 l 326 633 l 457 906 z "},":":{"ha":429,"x_min":50,"x_max":501,"o":"m 50 0 l 99 272 l 428 272 l 379 0 l 50 0 m 125 422 l 150 572 l 479 572 l 454 422 l 125 422 m 161 633 l 172 694 l 501 694 l 490 633 l 161 633 z "},";":{"ha":429,"x_min":18,"x_max":501,"o":"m 18 -179 l 99 272 l 428 272 l 383 21 q 243 -85 319 -37 q 79 -179 167 -133 l 18 -179 m 125 422 l 150 572 l 479 572 l 454 422 l 125 422 m 161 633 l 172 694 l 501 694 l 490 633 l 161 633 z "},"<":{"ha":722,"x_min":104,"x_max":857,"o":"m 317 0 l 104 451 l 203 572 l 563 572 l 456 451 l 696 0 l 317 0 m 476 906 l 857 906 l 617 633 l 253 633 l 476 906 z "},"=":{"ha":618,"x_min":82,"x_max":696,"o":"m 600 185 l 82 185 l 125 424 l 643 424 l 600 185 m 653 482 l 135 482 l 150 572 l 668 572 l 653 482 m 696 721 l 679 633 l 161 633 l 178 721 l 696 721 z "},">":{"ha":722,"x_min":26,"x_max":776,"o":"m 776 451 l 406 0 l 26 0 l 425 451 l 361 572 l 719 572 l 776 451 m 185 906 l 565 906 l 692 633 l 328 633 l 185 906 z "},"?":{"ha":788,"x_min":89,"x_max":868,"o":"m 161 633 l 210 906 l 700 906 q 766 893 735 906 q 819 858 797 881 q 855 804 842 835 q 868 736 868 774 q 864 697 868 718 q 859 676 861 686 q 851 656 857 667 q 840 633 846 643 l 161 633 m 560 335 l 146 335 q 253 454 190 399 q 385 572 317 510 l 803 572 q 691 448 756 506 q 560 335 626 390 m 138 272 l 467 272 l 418 0 l 89 0 l 138 272 z "},"@":{"ha":1457,"x_min":86,"x_max":1531,"o":"m 1315 -115 l 299 -115 q 224 -96 261 -115 q 156 -44 186 -76 q 106 29 125 -11 q 86 111 86 69 q 87 125 86 118 q 89 139 88 132 l 165 572 l 481 572 l 429 274 q 425 247 426 260 q 424 222 424 233 q 442 165 424 188 q 510 143 460 143 l 1361 143 l 1315 -115 m 175 633 l 199 764 q 240 854 207 808 q 317 937 272 900 q 410 997 361 974 q 500 1021 460 1021 l 1318 1021 q 1392 1001 1354 1021 q 1460 948 1429 981 q 1511 874 1492 915 q 1531 792 1531 833 q 1530 778 1531 785 q 1528 764 1529 771 l 1504 633 l 1188 633 q 1192 682 1192 658 q 1173 740 1192 718 q 1107 763 1154 763 l 619 763 q 529 725 557 763 q 492 633 501 688 l 175 633 m 1478 478 q 1437 388 1469 433 q 1360 306 1404 343 q 1267 247 1315 269 q 1178 224 1218 224 l 767 224 q 595 265 658 224 q 532 399 532 306 q 538 453 532 442 l 539 454 q 556 519 544 490 q 585 572 568 549 l 1075 572 q 1082 542 1079 557 q 1085 508 1085 526 q 1079 463 1085 474 l 1079 454 l 1078 453 q 1072 419 1075 433 q 1063 393 1068 404 q 1139 439 1118 401 q 1169 526 1160 476 l 1176 572 l 1494 572 l 1478 478 m 818 517 q 760 503 774 517 q 740 456 746 489 l 740 454 q 736 426 736 438 q 749 401 736 408 q 796 393 761 393 q 856 407 840 393 q 876 454 871 421 l 876 456 q 878 468 878 463 q 879 479 879 474 q 867 508 879 499 q 818 517 854 517 m 650 633 q 849 682 729 682 q 1033 633 974 682 l 650 633 z "},"A":{"ha":1142,"x_min":24,"x_max":1118,"o":"m 771 139 l 435 139 l 363 0 l 24 0 l 303 572 l 647 572 l 550 381 l 740 381 l 710 572 l 1040 572 l 1118 0 l 793 0 l 771 139 m 333 633 l 467 906 l 994 906 l 1032 633 l 700 633 l 696 667 l 679 633 l 333 633 z "},"B":{"ha":1074,"x_min":50,"x_max":1140,"o":"m 751 0 l 50 0 l 150 572 l 481 572 l 481 571 l 722 571 l 740 571 q 756 572 751 571 l 1119 572 q 1078 510 1103 539 q 1029 461 1053 481 q 1065 396 1049 433 q 1081 317 1081 358 q 1080 303 1081 310 q 1078 289 1079 296 l 1075 272 q 1034 176 1067 224 q 956 88 1001 128 q 856 24 910 49 q 751 0 803 0 m 161 633 l 210 906 l 911 906 q 1000 885 958 906 q 1073 831 1042 864 q 1122 754 1104 797 q 1140 667 1140 711 q 1140 650 1140 658 q 1138 633 1139 642 l 161 633 m 439 335 l 429 272 l 671 272 q 724 280 710 272 q 742 303 739 288 q 743 313 743 304 q 730 331 743 326 q 681 335 717 335 l 439 335 z "},"C":{"ha":938,"x_min":93,"x_max":1047,"o":"m 888 0 l 306 0 q 231 20 268 0 q 163 73 193 40 q 113 147 132 106 q 93 229 93 188 l 93 243 q 94 257 93 256 l 150 572 l 489 572 q 477 539 482 557 q 469 501 472 521 l 450 394 q 446 353 446 371 q 464 294 446 317 q 533 272 482 272 l 936 272 l 888 0 m 161 633 l 164 649 q 205 739 172 693 q 282 822 238 785 q 376 882 326 858 q 465 906 425 906 l 1047 906 l 999 633 l 596 633 l 589 633 l 161 633 z "},"D":{"ha":1076,"x_min":50,"x_max":1143,"o":"m 50 0 l 150 572 l 479 572 l 428 272 l 640 272 q 696 283 674 272 q 733 311 718 293 q 755 353 747 329 q 767 403 763 376 l 785 501 q 789 553 789 528 q 788 563 789 558 q 788 572 788 567 l 1126 572 l 1072 257 q 1031 167 1064 213 q 954 84 999 121 q 860 24 910 47 q 771 0 811 0 l 50 0 m 161 633 l 210 906 l 931 906 q 1004 885 967 906 q 1073 832 1042 865 q 1124 758 1104 799 q 1143 675 1143 717 q 1142 662 1143 668 q 1140 649 1142 656 l 1138 633 l 161 633 z "},"E":{"ha":939,"x_min":50,"x_max":1049,"o":"m 910 333 l 438 333 l 428 272 l 938 272 l 889 0 l 50 0 l 150 572 l 953 572 l 910 333 m 161 633 l 210 906 l 1049 906 l 1000 633 l 161 633 z "},"F":{"ha":851,"x_min":50,"x_max":961,"o":"m 818 307 l 433 307 l 379 0 l 50 0 l 150 572 l 865 572 l 818 307 m 161 633 l 210 906 l 961 906 l 913 633 l 161 633 z "},"G":{"ha":1065,"x_min":117,"x_max":1175,"o":"m 126 456 q 140 516 132 488 q 157 572 147 544 l 518 572 q 464 454 476 528 l 463 450 q 458 423 460 436 q 457 397 457 410 q 488 310 457 342 q 597 272 518 279 l 735 272 l 774 496 l 1103 496 l 1015 0 l 578 0 q 384 19 469 0 q 239 78 299 38 q 148 183 179 118 q 117 339 117 247 q 119 392 117 364 q 126 450 121 419 l 126 456 m 714 635 q 696 634 704 635 q 679 633 688 633 l 182 633 q 399 842 256 779 q 738 906 543 906 l 1175 906 l 1128 635 l 714 635 z "},"H":{"ha":1076,"x_min":50,"x_max":1186,"o":"m 697 0 l 756 333 l 438 333 l 379 0 l 50 0 l 150 572 l 1126 572 l 1026 0 l 697 0 m 1186 906 l 1138 633 l 808 633 l 857 906 l 1186 906 m 539 906 l 490 633 l 161 633 l 210 906 l 539 906 z "},"I":{"ha":429,"x_min":50,"x_max":539,"o":"m 379 0 l 50 0 l 150 572 l 479 572 l 379 0 m 539 906 l 490 633 l 161 633 l 210 906 l 539 906 z "},"J":{"ha":793,"x_min":50,"x_max":903,"o":"m 822 450 q 748 241 800 326 q 618 102 696 156 q 438 24 540 49 q 213 0 335 0 l 50 0 l 99 272 l 290 272 q 431 324 386 279 q 490 450 476 369 l 511 572 l 843 572 l 822 450 m 571 906 l 903 906 l 854 633 l 522 633 l 571 906 z "},"K":{"ha":1053,"x_min":50,"x_max":1188,"o":"m 379 0 l 50 0 l 150 572 l 865 572 l 749 451 l 1026 0 l 649 0 l 440 347 l 379 0 m 794 906 l 1188 906 l 924 633 l 533 633 l 794 906 m 539 906 l 490 633 l 161 633 l 210 906 l 539 906 z "},"L":{"ha":788,"x_min":50,"x_max":786,"o":"m 50 0 l 150 572 l 481 572 l 428 272 l 786 272 l 738 0 l 50 0 m 161 633 l 210 906 l 539 906 l 490 633 l 161 633 z "},"M":{"ha":1251,"x_min":50,"x_max":1361,"o":"m 1201 0 l 871 0 l 933 354 l 654 0 l 599 0 l 442 354 l 379 0 l 50 0 l 150 572 l 699 572 l 711 544 l 733 572 l 1301 572 l 1201 0 m 782 633 l 1000 906 l 1361 906 l 1313 633 l 782 633 m 161 633 l 210 906 l 544 906 l 669 633 l 161 633 z "},"N":{"ha":1076,"x_min":50,"x_max":1186,"o":"m 1026 0 l 707 0 l 453 415 l 379 0 l 50 0 l 150 572 l 733 572 l 783 492 l 797 572 l 1126 572 l 1026 0 m 161 633 l 210 906 l 531 906 l 696 633 l 161 633 m 808 633 l 857 906 l 1186 906 l 1138 633 l 808 633 z "},"O":{"ha":1179,"x_min":117,"x_max":1221,"o":"m 588 -7 q 392 13 479 -7 q 243 74 304 32 q 149 183 182 117 q 117 343 117 249 q 119 394 117 368 q 126 450 121 421 l 126 453 q 140 515 132 485 q 158 572 147 544 l 511 572 q 463 453 475 526 l 463 450 q 457 392 457 439 q 497 297 457 329 q 636 264 536 264 q 736 276 694 264 q 806 313 778 289 q 849 371 833 336 q 874 450 865 406 l 874 453 q 878 481 876 467 q 879 508 879 494 q 865 572 879 546 l 1221 572 l 1221 564 q 1218 510 1221 538 q 1210 453 1215 483 l 1210 450 q 1133 240 1188 326 q 999 98 1079 153 q 815 18 919 43 q 588 -7 710 -7 m 701 640 q 658 638 678 640 q 622 633 639 636 l 186 633 q 408 844 263 779 q 749 910 554 910 q 926 894 846 910 q 1067 844 1007 878 q 1165 758 1126 811 q 1215 633 1203 706 l 776 633 q 742 638 760 636 q 701 640 724 640 z "},"P":{"ha":1076,"x_min":50,"x_max":1140,"o":"m 379 0 l 50 0 l 150 572 l 479 572 l 469 513 l 693 513 q 764 528 744 513 q 790 572 783 543 l 1126 572 l 1118 521 q 1076 426 1110 475 q 997 336 1043 376 q 897 270 950 296 q 794 244 843 244 l 422 244 l 379 0 m 161 633 l 210 906 l 911 906 q 1000 885 958 906 q 1073 829 1042 864 q 1122 751 1104 794 q 1140 664 1140 708 q 1140 648 1140 656 q 1138 633 1139 640 l 161 633 z "},"Q":{"ha":1226,"x_min":119,"x_max":1288,"o":"m 614 446 l 840 347 q 879 450 868 388 l 879 453 q 885 507 885 464 q 871 572 885 543 l 1225 572 q 1226 567 1225 569 q 1226 563 1226 565 q 1224 510 1226 538 q 1215 453 1221 483 l 1215 450 q 1192 355 1206 399 q 1158 272 1178 311 l 1288 272 l 1121 0 l 740 0 l 731 1 q 661 -4 697 -1 q 589 -7 625 -7 q 393 13 481 -7 q 245 74 306 32 q 152 183 185 117 q 119 343 119 249 q 122 394 119 368 q 129 450 124 421 l 129 453 q 142 515 135 485 q 161 572 150 544 l 514 572 q 465 453 478 526 l 465 450 q 461 419 463 433 q 460 390 460 404 q 481 313 460 342 q 561 271 503 283 l 593 446 l 614 446 m 751 910 q 930 894 849 910 q 1072 844 1011 878 q 1170 758 1132 811 q 1221 633 1208 706 l 781 633 q 744 638 763 636 q 704 640 725 640 q 661 638 681 640 q 625 633 642 636 l 189 633 q 411 844 265 779 q 751 910 557 910 z "},"R":{"ha":1194,"x_min":50,"x_max":1193,"o":"m 379 0 l 50 0 l 150 572 l 479 572 l 471 524 l 660 524 q 761 572 746 524 l 1097 572 l 1097 569 q 1068 475 1089 521 q 1013 390 1047 429 q 932 321 979 351 q 824 272 885 290 l 1193 272 l 1144 0 l 613 0 q 543 33 575 4 q 486 101 511 61 q 446 187 461 142 q 426 269 431 232 l 379 0 m 161 633 l 210 906 l 914 906 q 989 886 953 906 q 1053 835 1025 867 q 1099 765 1082 804 q 1115 683 1115 725 q 1115 667 1115 675 q 1113 650 1114 658 l 1108 633 l 690 633 l 679 633 l 161 633 z "},"S":{"ha":1044,"x_min":50,"x_max":1154,"o":"m 50 0 l 99 272 l 549 272 q 493 341 524 306 q 433 414 463 376 q 379 491 404 451 q 339 572 354 531 l 757 572 q 819 490 789 531 q 874 409 850 450 q 914 325 899 368 q 929 236 929 282 q 925 185 929 211 q 899 111 918 144 q 851 53 879 78 q 788 14 824 28 q 714 0 753 0 l 50 0 m 1106 633 l 324 633 q 322 644 322 639 q 321 656 321 649 l 321 664 q 325 697 321 678 q 356 780 333 742 q 411 846 379 818 q 482 890 443 874 q 561 906 521 906 l 1154 906 l 1106 633 z "},"T":{"ha":1024,"x_min":161,"x_max":1133,"o":"m 210 906 l 1133 906 l 1085 633 l 161 633 l 210 906 m 676 0 l 347 0 l 447 572 l 776 572 l 676 0 z "},"U":{"ha":1076,"x_min":93,"x_max":1186,"o":"m 451 403 q 447 354 447 378 q 465 295 447 318 q 533 272 482 272 l 640 272 q 696 283 674 272 q 733 311 718 293 q 755 353 747 329 q 767 403 763 376 l 796 572 l 1128 572 l 1072 257 q 1031 167 1064 213 q 954 84 999 121 q 860 24 910 47 q 771 0 811 0 l 306 0 q 231 20 268 0 q 163 73 193 40 q 113 147 132 106 q 93 229 93 188 q 94 243 93 236 q 96 257 94 250 l 151 572 l 481 572 l 451 403 m 807 633 l 856 906 l 1186 906 l 1138 633 l 807 633 m 161 633 l 210 906 l 540 906 l 492 633 l 161 633 z "},"V":{"ha":1136,"x_min":182,"x_max":1274,"o":"m 603 239 l 768 572 l 1110 572 l 831 0 l 306 0 l 228 572 l 554 572 l 603 239 m 799 633 l 935 906 l 1274 906 l 1140 633 l 799 633 m 182 906 l 507 906 l 546 633 l 219 633 l 182 906 z "},"W":{"ha":1464,"x_min":183,"x_max":1600,"o":"m 1083 563 l 1088 572 l 1436 572 l 1157 0 l 829 0 l 794 357 l 635 0 l 307 0 l 229 572 l 558 572 l 560 563 l 564 572 l 1082 572 l 1083 563 m 739 906 l 1031 906 l 1072 633 l 596 633 l 739 906 m 1600 906 l 1467 633 l 1119 633 l 1261 906 l 1600 906 m 183 906 l 508 906 l 549 633 l 221 633 l 183 906 z "},"X":{"ha":1040,"x_min":25,"x_max":1176,"o":"m 424 451 l 360 572 l 882 572 l 775 451 l 1015 0 l 643 0 l 556 168 l 411 0 l 25 0 l 424 451 m 789 906 l 1176 906 l 936 633 l 326 633 l 183 906 l 557 906 l 642 736 l 789 906 z "},"Y":{"ha":1076,"x_min":135,"x_max":1186,"o":"m 490 572 q 513 529 494 544 q 574 514 531 514 l 683 514 q 749 530 724 514 q 789 572 774 546 l 1126 572 l 1114 499 q 1073 408 1106 454 q 996 326 1040 363 q 903 267 951 290 q 814 244 854 244 l 746 244 l 703 0 l 374 0 l 417 244 l 349 244 q 274 264 313 244 q 205 316 236 283 q 154 389 174 349 q 135 471 135 429 q 135 485 135 478 q 138 499 136 492 l 150 572 l 490 572 m 493 644 q 492 639 492 643 q 490 633 492 635 l 161 633 l 210 906 l 539 906 l 493 644 m 808 633 q 810 639 810 635 q 811 644 810 643 l 857 906 l 1186 906 l 1138 633 l 808 633 z "},"Z":{"ha":1044,"x_min":151,"x_max":1043,"o":"m 994 0 l 151 0 l 183 185 q 222 292 193 242 q 290 389 250 342 q 381 481 331 436 q 483 572 431 525 l 904 572 q 838 492 875 531 q 761 415 801 453 q 679 342 721 378 q 597 272 638 306 l 1043 272 l 994 0 m 161 633 l 210 906 l 1003 906 l 967 697 q 962 676 964 686 q 954 656 960 667 q 943 633 949 643 l 161 633 z "},"[":{"ha":629,"x_min":50,"x_max":739,"o":"m 579 0 l 50 0 l 150 572 l 481 572 l 429 272 l 628 272 l 579 0 m 739 906 l 690 633 l 161 633 l 210 906 l 739 906 z "},"\\":{"ha":657,"x_min":182,"x_max":635,"o":"m 313 0 l 231 572 l 553 572 l 635 0 l 313 0 m 506 906 l 544 633 l 221 633 l 182 906 l 506 906 z "},"]":{"ha":629,"x_min":50,"x_max":739,"o":"m 50 0 l 99 272 l 297 272 l 349 572 l 679 572 l 579 0 l 50 0 m 690 633 l 161 633 l 210 906 l 739 906 l 690 633 z "},"^":{"ha":1131,"x_min":24,"x_max":1107,"o":"m 775 0 l 694 572 l 1029 572 l 1107 0 l 775 0 m 356 0 l 24 0 l 303 572 l 638 572 l 356 0 m 682 663 l 667 633 l 333 633 l 467 906 l 983 906 l 1021 633 l 686 633 l 682 663 z "},"_":{"ha":800,"x_min":42,"x_max":778,"o":"m 742 -50 l 42 -50 l 78 156 l 778 156 l 742 -50 z "},"`":{"ha":375,"x_min":175,"x_max":497,"o":"m 222 976 l 175 1206 l 450 1206 l 497 976 l 222 976 z "},"a":{"ha":1142,"x_min":24,"x_max":1118,"o":"m 771 139 l 435 139 l 363 0 l 24 0 l 303 572 l 647 572 l 550 381 l 740 381 l 710 572 l 1040 572 l 1118 0 l 793 0 l 771 139 m 333 633 l 467 906 l 994 906 l 1032 633 l 700 633 l 696 667 l 679 633 l 333 633 z "},"b":{"ha":1074,"x_min":50,"x_max":1140,"o":"m 751 0 l 50 0 l 150 572 l 481 572 l 481 571 l 722 571 l 740 571 q 756 572 751 571 l 1119 572 q 1078 510 1103 539 q 1029 461 1053 481 q 1065 396 1049 433 q 1081 317 1081 358 q 1080 303 1081 310 q 1078 289 1079 296 l 1075 272 q 1034 176 1067 224 q 956 88 1001 128 q 856 24 910 49 q 751 0 803 0 m 161 633 l 210 906 l 911 906 q 1000 885 958 906 q 1073 831 1042 864 q 1122 754 1104 797 q 1140 667 1140 711 q 1140 650 1140 658 q 1138 633 1139 642 l 161 633 m 439 335 l 429 272 l 671 272 q 724 280 710 272 q 742 303 739 288 q 743 313 743 304 q 730 331 743 326 q 681 335 717 335 l 439 335 z "},"c":{"ha":935,"x_min":106,"x_max":1044,"o":"m 126 454 q 140 517 132 488 q 157 572 147 546 l 519 572 q 465 454 478 528 l 464 450 q 460 410 460 429 q 628 272 460 285 l 933 272 l 885 0 l 578 0 q 360 24 454 0 q 208 102 267 49 q 127 241 149 156 q 126 450 106 326 l 126 454 m 997 635 l 182 633 q 400 843 257 781 q 738 906 543 906 l 1044 906 l 997 635 z "},"d":{"ha":1076,"x_min":50,"x_max":1119,"o":"m 50 0 l 150 572 l 481 572 l 428 272 l 546 272 q 771 450 742 286 l 772 454 q 776 501 776 479 q 758 572 776 546 l 1119 572 l 1119 565 q 1117 508 1119 536 q 1110 454 1115 481 l 1108 450 q 1035 241 1088 326 q 905 102 983 156 q 724 24 826 49 q 499 0 621 0 l 50 0 m 1114 633 l 161 633 l 210 906 l 658 906 q 835 890 756 906 q 972 842 914 875 q 1067 758 1031 810 q 1114 633 1103 706 z "},"e":{"ha":939,"x_min":50,"x_max":1049,"o":"m 910 333 l 438 333 l 428 272 l 938 272 l 889 0 l 50 0 l 150 572 l 953 572 l 910 333 m 161 633 l 210 906 l 1049 906 l 1000 633 l 161 633 z "},"f":{"ha":851,"x_min":50,"x_max":961,"o":"m 822 329 l 438 329 l 379 0 l 50 0 l 150 572 l 865 572 l 822 329 m 161 633 l 210 906 l 961 906 l 913 633 l 161 633 z "},"g":{"ha":1065,"x_min":117,"x_max":1175,"o":"m 126 456 q 140 516 132 488 q 157 572 147 544 l 518 572 q 464 454 476 528 l 463 450 q 458 423 460 436 q 457 397 457 410 q 488 310 457 342 q 597 272 518 279 l 735 272 l 774 496 l 1103 496 l 1015 0 l 578 0 q 384 19 469 0 q 239 78 299 38 q 148 183 179 118 q 117 339 117 247 q 119 392 117 364 q 126 450 121 419 l 126 456 m 1128 635 l 182 633 q 399 842 256 779 q 738 906 543 906 l 1175 906 l 1128 635 z "},"h":{"ha":1076,"x_min":50,"x_max":1186,"o":"m 697 0 l 756 333 l 438 333 l 379 0 l 50 0 l 150 572 l 1126 572 l 1026 0 l 697 0 m 1186 906 l 1138 633 l 808 633 l 857 906 l 1186 906 m 539 906 l 490 633 l 161 633 l 210 906 l 539 906 z "},"i":{"ha":429,"x_min":50,"x_max":539,"o":"m 379 0 l 50 0 l 150 572 l 479 572 l 379 0 m 539 906 l 490 633 l 161 633 l 210 906 l 539 906 z "},"j":{"ha":792,"x_min":50,"x_max":901,"o":"m 50 0 l 99 272 l 358 272 q 413 282 392 272 q 449 309 435 292 q 470 349 463 326 q 482 400 478 372 l 513 572 l 843 572 l 788 257 q 747 167 779 213 q 669 84 714 121 q 576 24 625 47 q 486 0 526 0 l 50 0 m 522 633 l 571 906 l 901 906 l 853 633 l 522 633 z "},"k":{"ha":1053,"x_min":50,"x_max":1188,"o":"m 379 0 l 50 0 l 150 572 l 865 572 l 749 451 l 1026 0 l 649 0 l 440 347 l 379 0 m 794 906 l 1188 906 l 924 633 l 533 633 l 794 906 m 539 906 l 490 633 l 161 633 l 210 906 l 539 906 z "},"l":{"ha":788,"x_min":50,"x_max":786,"o":"m 50 0 l 150 572 l 481 572 l 428 272 l 786 272 l 738 0 l 50 0 m 161 633 l 210 906 l 539 906 l 490 633 l 161 633 z "},"m":{"ha":1251,"x_min":50,"x_max":1361,"o":"m 1201 0 l 871 0 l 933 354 l 654 0 l 599 0 l 442 354 l 379 0 l 50 0 l 150 572 l 1301 572 l 1201 0 m 782 633 l 1000 906 l 1361 906 l 1313 633 l 782 633 m 161 633 l 210 906 l 544 906 l 669 633 l 161 633 z "},"n":{"ha":1076,"x_min":50,"x_max":1186,"o":"m 1026 0 l 707 0 l 453 415 l 379 0 l 50 0 l 150 572 l 1126 572 l 1026 0 m 161 633 l 210 906 l 531 906 l 696 633 l 161 633 m 808 633 l 857 906 l 1186 906 l 1138 633 l 808 633 z "},"o":{"ha":1176,"x_min":117,"x_max":1219,"o":"m 586 -7 q 390 13 478 -7 q 242 74 303 32 q 149 183 182 117 q 117 343 117 249 q 119 394 117 368 q 126 450 121 421 l 126 453 q 140 515 132 485 q 158 572 147 544 l 510 572 q 480 519 490 549 q 463 453 469 489 l 463 450 q 457 392 457 439 q 497 297 457 331 q 635 264 536 264 q 735 276 693 264 q 804 313 776 289 q 848 371 832 336 q 872 450 864 406 l 872 453 q 876 481 875 467 q 878 508 878 494 q 864 572 878 546 l 1219 572 l 1219 564 q 1217 510 1219 538 q 1208 453 1214 483 l 1208 450 q 1132 240 1186 326 q 998 98 1078 153 q 813 18 918 43 q 586 -7 708 -7 m 1214 633 l 186 633 q 408 844 263 779 q 747 910 553 910 q 925 894 844 910 q 1065 844 1006 878 q 1163 758 1125 811 q 1214 633 1201 706 z "},"p":{"ha":1076,"x_min":50,"x_max":1140,"o":"m 379 0 l 50 0 l 150 572 l 479 572 l 469 513 l 693 513 q 764 528 744 513 q 790 572 783 543 l 1126 572 l 1118 521 q 1076 426 1110 475 q 997 336 1043 376 q 897 270 950 296 q 794 244 843 244 l 422 244 l 379 0 m 161 633 l 210 906 l 911 906 q 1000 885 958 906 q 1073 829 1042 864 q 1122 751 1104 794 q 1140 664 1140 708 q 1140 648 1140 656 q 1138 633 1139 640 l 161 633 z "},"q":{"ha":1226,"x_min":119,"x_max":1288,"o":"m 614 446 l 840 347 q 879 450 868 388 l 879 453 q 885 507 885 464 q 871 572 885 543 l 1225 572 q 1226 567 1225 569 q 1226 563 1226 565 q 1224 510 1226 538 q 1215 453 1221 483 l 1215 450 q 1192 355 1206 399 q 1158 272 1178 311 l 1288 272 l 1121 0 l 740 0 l 731 1 q 661 -4 697 -1 q 589 -7 625 -7 q 393 13 481 -7 q 245 74 306 32 q 152 183 185 117 q 119 343 119 249 q 122 394 119 368 q 129 450 124 421 l 129 453 q 142 515 135 485 q 161 572 150 544 l 514 572 q 465 453 478 526 l 465 450 q 461 419 463 433 q 460 390 460 404 q 481 313 460 342 q 561 271 503 283 l 593 446 l 614 446 m 751 910 q 930 894 849 910 q 1072 844 1011 878 q 1170 758 1132 811 q 1221 633 1208 706 l 189 633 q 411 844 265 779 q 751 910 557 910 z "},"r":{"ha":1194,"x_min":50,"x_max":1193,"o":"m 379 0 l 50 0 l 150 572 l 479 572 l 471 524 l 660 524 q 761 572 746 524 l 1097 572 l 1097 569 q 1068 475 1089 521 q 1013 390 1047 429 q 932 321 979 351 q 824 272 885 290 l 1193 272 l 1144 0 l 613 0 q 543 33 575 4 q 486 101 511 61 q 446 187 461 142 q 426 269 431 232 l 379 0 m 161 633 l 210 906 l 914 906 q 989 886 953 906 q 1053 835 1025 867 q 1099 765 1082 804 q 1115 683 1115 725 q 1115 667 1115 675 q 1113 650 1114 658 l 1108 633 l 690 633 l 679 633 l 161 633 z "},"s":{"ha":1044,"x_min":50,"x_max":1154,"o":"m 50 0 l 99 272 l 549 272 q 493 341 524 306 q 433 414 463 376 q 379 491 404 451 q 339 572 354 531 l 757 572 q 820 490 789 531 q 876 409 851 450 q 915 326 900 368 q 931 236 931 283 q 926 185 931 211 q 900 111 919 144 q 852 53 881 78 q 788 14 824 28 q 714 0 753 0 l 50 0 m 1154 906 l 1106 633 l 324 633 q 322 644 322 639 q 321 656 321 649 l 321 667 q 325 697 321 681 q 356 780 333 742 q 411 846 379 818 q 482 890 443 874 q 561 906 521 906 l 1154 906 z "},"t":{"ha":1015,"x_min":161,"x_max":1125,"o":"m 210 906 l 1125 906 l 1076 633 l 161 633 l 210 906 m 672 0 l 343 0 l 443 572 l 772 572 l 672 0 z "},"u":{"ha":1075,"x_min":118,"x_max":1185,"o":"m 586 272 q 716 324 675 282 q 771 444 757 365 l 793 572 l 1126 572 l 1104 446 q 1035 244 1083 328 q 915 108 988 161 q 747 28 842 54 q 538 -3 651 1 q 361 22 439 1 q 229 82 283 42 q 147 184 175 122 q 118 332 118 246 q 121 386 118 358 q 129 446 124 414 l 151 572 l 482 572 l 460 444 q 456 417 457 431 q 454 393 454 404 q 485 309 454 339 q 586 272 515 279 m 853 906 l 1185 906 l 1136 633 l 804 633 l 853 906 m 542 906 l 493 633 l 161 633 l 210 906 l 542 906 z "},"v":{"ha":1113,"x_min":183,"x_max":1249,"o":"m 597 264 l 747 572 l 1085 572 l 806 0 l 307 0 l 229 572 l 554 572 l 597 264 m 776 633 l 910 906 l 1249 906 l 1115 633 l 776 633 m 183 906 l 508 906 l 546 633 l 221 633 l 183 906 z "},"w":{"ha":1464,"x_min":183,"x_max":1600,"o":"m 229 572 l 1436 572 l 1157 0 l 829 0 l 794 357 l 635 0 l 307 0 l 229 572 m 739 906 l 1031 906 l 1072 633 l 596 633 l 739 906 m 1600 906 l 1467 633 l 1119 633 l 1261 906 l 1600 906 m 183 906 l 508 906 l 549 633 l 221 633 l 183 906 z "},"x":{"ha":1043,"x_min":26,"x_max":1178,"o":"m 425 451 l 361 572 l 883 572 l 776 451 l 1017 0 l 644 0 l 557 168 l 413 0 l 26 0 l 425 451 m 790 906 l 1178 906 l 938 633 l 328 633 l 185 906 l 558 906 l 643 736 l 790 906 z "},"y":{"ha":1043,"x_min":185,"x_max":1178,"o":"m 758 407 l 686 0 l 357 0 l 428 406 l 347 572 l 897 572 l 758 407 m 792 906 l 1178 906 l 949 633 l 317 633 l 185 906 l 560 906 l 644 733 l 792 906 z "},"z":{"ha":1044,"x_min":151,"x_max":1043,"o":"m 994 0 l 151 0 l 183 185 q 222 292 193 242 q 290 389 250 342 q 381 481 331 436 q 483 572 431 525 l 906 572 q 761 415 846 489 q 596 272 676 342 l 1043 272 l 994 0 m 161 633 l 210 906 l 1003 906 l 967 697 q 962 676 964 686 q 954 656 960 667 q 943 633 949 643 l 161 633 z "},"{":{"ha":629,"x_min":81,"x_max":751,"o":"m 567 -69 l 293 -69 q 218 -49 256 -69 q 150 4 181 -29 q 100 78 119 38 q 81 161 81 119 q 81 174 81 168 q 83 188 82 181 l 150 572 l 481 572 l 481 571 l 439 333 q 435 285 435 308 q 452 226 435 249 q 521 203 469 203 l 615 203 l 567 -69 m 608 703 q 538 684 564 703 q 497 633 511 665 l 161 633 l 176 718 q 217 808 185 763 q 294 891 250 854 q 388 951 339 928 q 478 975 438 975 l 751 975 l 703 703 l 608 703 z "},"|":{"ha":429,"x_min":21,"x_max":568,"o":"m 350 -162 l 21 -162 l 150 572 l 479 572 l 350 -162 m 568 1069 l 490 633 l 161 633 l 239 1069 l 568 1069 z "},"}":{"ha":629,"x_min":38,"x_max":708,"o":"m 38 -69 l 86 203 l 181 203 q 236 213 214 203 q 273 242 258 224 q 295 283 288 260 q 307 333 303 307 l 349 571 l 349 572 l 679 572 l 613 188 q 572 97 604 143 q 494 15 539 51 q 401 -46 450 -22 q 311 -69 351 -69 l 38 -69 m 354 633 q 332 684 351 665 q 268 703 313 703 l 174 703 l 222 975 l 496 975 q 569 955 532 975 q 638 902 607 935 q 689 828 669 869 q 708 746 708 788 q 708 732 708 739 q 706 718 707 725 l 690 633 l 354 633 z "},"~":{"ha":1076,"x_min":50,"x_max":1143,"o":"m 1138 633 l 161 633 l 210 906 l 931 906 q 1004 885 967 906 q 1073 832 1042 865 q 1124 758 1104 799 q 1143 675 1143 717 q 1142 662 1143 668 q 1140 649 1142 656 l 1138 633 m 789 551 q 788 562 789 557 q 788 572 788 567 l 1126 572 l 1026 0 l 696 0 l 785 503 q 789 551 789 528 m 381 0 l 50 0 l 150 572 l 481 572 l 381 0 z "},"":{"ha":324,"x_min":0,"x_max":0,"o":""},"€":{"ha":1017,"x_min":82,"x_max":1126,"o":"m 726 482 l 561 482 l 551 424 l 717 424 l 690 275 q 706 273 697 274 q 724 272 715 272 l 1015 272 l 967 0 l 668 0 q 394 42 504 0 q 236 185 283 85 l 82 185 l 125 424 l 213 424 l 222 482 l 135 482 l 150 572 l 742 572 l 726 482 m 161 633 l 178 721 l 332 721 q 538 863 413 821 q 828 906 664 906 l 1126 906 l 1079 635 l 811 635 q 789 634 800 635 q 767 633 778 633 l 161 633 z "},"‚":{"ha":429,"x_min":18,"x_max":428,"o":"m 18 -179 l 99 272 l 428 272 l 383 21 q 243 -85 319 -37 q 79 -179 167 -133 l 18 -179 z "},"ƒ":{"ha":1129,"x_min":104,"x_max":1171,"o":"m 497 456 q 404 317 456 317 q 375 313 388 313 q 321 346 325 313 q 417 521 343 476 q 424 522 422 521 q 425 522 426 522 l 435 522 q 497 456 493 522 m 881 324 l 858 332 q 825 379 849 379 q 772 332 803 379 l 736 332 q 843 531 765 432 q 869 536 849 536 q 903 474 900 536 l 881 324 m 631 317 q 539 413 586 317 l 522 318 l 493 311 l 526 514 l 606 385 l 635 524 l 665 514 l 631 317 m 1044 322 q 956 422 1003 322 l 938 324 l 911 321 l 942 519 l 1019 393 l 1053 532 l 1079 521 l 1044 322 m 340 529 l 328 481 q 319 484 321 483 q 311 485 318 485 q 257 456 286 485 q 217 375 224 418 q 215 363 215 374 q 246 335 215 335 q 282 340 272 335 l 279 306 q 256 300 265 303 q 240 297 247 297 q 188 385 188 297 l 188 386 q 189 400 188 399 l 190 411 q 340 529 207 507 m 458 428 q 457 450 463 444 q 428 476 451 476 q 365 413 400 476 l 364 399 q 383 350 356 350 q 433 368 399 350 q 458 428 453 396 m 753 532 l 708 335 l 664 321 l 717 524 l 753 532 m 192 524 l 147 326 l 104 311 l 160 517 l 192 524 m 1171 519 l 1124 374 l 1096 379 l 1132 532 l 1171 519 m 864 422 l 854 490 l 808 422 l 864 422 m 1117 311 l 1085 281 l 1067 304 l 1094 324 l 1117 311 z "},"„":{"ha":824,"x_min":18,"x_max":822,"o":"m 413 -179 l 493 272 l 822 272 l 778 21 q 638 -85 714 -37 q 474 -179 561 -133 l 413 -179 m 18 -179 l 99 272 l 428 272 l 383 21 q 243 -85 319 -37 q 79 -179 167 -133 l 18 -179 z "},"…":{"ha":1254,"x_min":50,"x_max":1253,"o":"m 875 0 l 924 272 l 1253 272 l 1204 0 l 875 0 m 463 0 l 511 272 l 840 272 l 792 0 l 463 0 m 50 0 l 99 272 l 428 272 l 379 0 l 50 0 z "},"†":{"ha":618,"x_min":135,"x_max":696,"o":"m 558 482 l 474 0 l 144 0 l 229 482 l 135 482 l 150 572 l 668 572 l 653 482 l 558 482 m 161 633 l 178 721 l 272 721 l 304 906 l 633 906 l 601 721 l 696 721 l 679 633 l 161 633 z "},"‡":{"ha":618,"x_min":82,"x_max":696,"o":"m 600 185 l 506 185 l 474 0 l 144 0 l 176 185 l 82 185 l 125 424 l 219 424 l 229 482 l 135 482 l 150 572 l 668 572 l 653 482 l 558 482 l 549 424 l 643 424 l 600 185 m 161 633 l 178 721 l 272 721 l 304 906 l 633 906 l 601 721 l 696 721 l 679 633 l 161 633 z "},"ˆ":{"ha":744,"x_min":222,"x_max":867,"o":"m 592 976 l 567 1100 l 497 976 l 222 976 l 350 1206 l 819 1206 l 867 976 l 592 976 z "},"‰":{"ha":2069,"x_min":161,"x_max":2068,"o":"m 1169 0 q 998 41 1061 0 q 935 175 935 82 q 940 229 935 218 l 940 231 q 1043 406 963 353 q 1250 458 1124 458 q 1423 418 1360 458 q 1486 286 1486 378 q 1485 258 1486 272 q 1481 231 1483 244 l 1481 229 q 1376 53 1458 106 q 1169 0 1294 0 m 1751 0 q 1580 41 1643 0 q 1517 175 1517 82 q 1522 229 1517 218 l 1522 231 q 1625 406 1544 353 q 1832 458 1706 458 q 2005 418 1942 458 q 2068 286 2068 378 q 2067 258 2068 272 q 2063 231 2065 244 l 2063 229 q 1958 53 2040 106 q 1751 0 1876 0 m 726 0 l 438 0 l 742 572 l 1032 572 l 726 0 m 447 744 q 387 728 403 744 q 364 679 371 713 l 364 678 q 362 665 363 671 q 361 653 361 658 q 364 633 361 642 l 161 633 q 167 676 161 667 l 167 678 q 269 853 189 800 q 476 906 350 906 q 649 865 586 906 q 713 733 713 825 q 711 706 713 719 q 707 678 710 692 l 707 676 q 701 655 704 665 q 696 633 699 644 l 489 633 q 508 678 501 646 l 508 679 q 510 692 510 686 q 511 704 511 699 q 497 735 511 725 q 447 744 483 744 m 919 906 l 1210 906 l 1064 633 l 775 633 l 919 906 m 396 447 q 243 476 303 447 q 167 572 183 506 l 669 572 q 561 476 631 506 q 396 447 492 447 m 1803 297 q 1742 281 1758 297 q 1719 232 1726 265 l 1719 231 q 1717 218 1718 224 q 1717 207 1717 213 q 1730 176 1717 186 q 1779 165 1743 165 q 1841 181 1824 165 q 1864 231 1858 197 l 1864 232 q 1866 245 1865 239 q 1867 257 1867 251 q 1853 288 1867 278 q 1803 297 1839 297 m 1221 297 q 1160 281 1176 297 q 1138 232 1144 265 l 1138 231 q 1135 218 1136 224 q 1135 207 1135 213 q 1148 176 1135 186 q 1197 165 1161 165 q 1259 181 1242 165 q 1282 231 1276 197 l 1282 232 q 1284 245 1283 239 q 1285 257 1285 251 q 1271 288 1285 278 q 1221 297 1257 297 z "},"Š":{"ha":1044,"x_min":50,"x_max":1154,"o":"m 714 0 l 50 0 l 99 272 l 549 272 q 493 341 524 306 q 433 414 463 376 q 379 491 404 451 q 339 572 354 531 l 757 572 q 820 490 789 531 q 876 410 851 450 q 915 327 900 369 q 931 238 931 285 q 929 212 931 225 q 925 185 928 199 q 899 111 918 144 q 851 53 879 78 q 788 14 824 28 q 714 0 753 0 m 324 633 q 322 644 322 639 q 321 656 321 649 l 321 667 q 325 697 321 681 q 356 780 333 742 q 411 846 379 818 q 482 890 443 874 q 561 906 521 906 l 1154 906 l 1106 633 l 324 633 m 754 1206 l 779 1082 l 849 1206 l 1124 1206 l 996 976 l 526 976 l 479 1206 l 754 1206 z "},"‹":{"ha":329,"x_min":88,"x_max":415,"o":"m 367 497 l 235 450 l 350 403 l 301 128 l 88 215 l 150 572 l 379 572 l 367 497 m 161 633 l 171 685 l 415 772 l 390 633 l 161 633 z "},"Œ":{"ha":1735,"x_min":117,"x_max":1844,"o":"m 1706 333 l 1233 333 l 1224 272 l 1733 272 l 1685 0 l 578 0 q 384 19 469 0 q 239 78 299 38 q 148 183 179 118 q 117 339 117 247 q 119 392 117 364 q 126 450 121 419 l 128 454 q 157 572 138 518 l 519 572 q 465 454 478 528 l 464 450 q 460 410 460 429 q 628 272 460 285 l 894 272 l 947 572 l 1749 572 l 1706 333 m 183 633 q 401 843 258 781 q 738 906 543 906 l 1844 906 l 1796 633 l 958 633 l 958 635 l 715 635 q 697 634 706 635 q 681 633 689 633 l 183 633 z "},"Ž":{"ha":1044,"x_min":151,"x_max":1043,"o":"m 151 0 l 183 185 q 222 292 193 242 q 292 388 251 342 q 383 480 333 435 q 486 572 433 525 l 904 572 q 836 492 874 531 q 758 415 799 453 q 675 342 717 378 q 593 272 633 307 l 1043 272 l 994 0 l 151 0 m 954 656 q 943 633 949 643 l 161 633 l 210 906 l 1003 906 l 967 697 q 962 676 964 686 q 954 656 960 667 m 715 1206 l 990 1206 l 863 976 l 393 976 l 346 1206 l 621 1206 l 646 1082 l 715 1206 z "},"‘":{"ha":429,"x_min":129,"x_max":539,"o":"m 539 904 l 490 633 l 161 633 l 174 704 q 314 810 238 763 q 478 904 390 858 l 539 904 m 458 453 l 129 453 l 150 572 l 479 572 l 458 453 z "},"’":{"ha":429,"x_min":131,"x_max":539,"o":"m 161 633 l 210 906 l 539 906 l 494 654 q 483 644 488 649 q 471 633 478 639 l 161 633 m 131 454 l 151 572 l 392 572 q 296 511 346 540 q 192 454 246 482 l 131 454 z "},"“":{"ha":824,"x_min":129,"x_max":933,"o":"m 539 904 l 490 633 l 161 633 l 174 704 q 314 810 238 763 q 478 904 390 858 l 539 904 m 933 904 l 885 633 l 556 633 l 568 704 q 708 810 632 763 q 872 904 785 858 l 933 904 m 458 453 l 129 453 l 150 572 l 479 572 l 458 453 m 853 453 l 524 453 l 544 572 l 874 572 l 853 453 z "},"”":{"ha":824,"x_min":131,"x_max":933,"o":"m 556 633 l 604 906 l 933 906 l 889 654 q 877 644 882 649 q 865 633 872 639 l 556 633 m 161 633 l 210 906 l 539 906 l 494 654 q 483 644 488 649 q 471 633 478 639 l 161 633 m 131 454 l 151 572 l 392 572 q 296 511 346 540 q 192 454 246 482 l 131 454 m 525 454 l 546 572 l 786 572 q 690 511 740 540 q 586 454 640 482 l 525 454 z "},"•":{"ha":1185,"x_min":119,"x_max":1225,"o":"m 590 -7 q 394 13 482 -7 q 246 74 307 32 q 152 183 185 117 q 119 343 119 249 q 122 394 119 368 q 129 450 124 421 l 129 453 q 142 515 135 485 q 161 572 150 544 l 1225 572 l 1225 563 q 1222 510 1225 538 q 1214 453 1219 483 l 1214 450 q 1138 240 1192 326 q 1003 98 1083 153 q 817 18 922 43 q 590 -7 713 -7 m 189 633 q 411 844 265 779 q 751 910 557 910 q 929 894 849 910 q 1070 844 1010 878 q 1169 758 1131 811 q 1219 633 1207 706 l 189 633 z "},"–":{"ha":565,"x_min":108,"x_max":615,"o":"m 574 333 l 108 333 l 150 572 l 615 572 l 574 333 z "},"—":{"ha":758,"x_min":108,"x_max":808,"o":"m 767 333 l 108 333 l 150 572 l 808 572 l 767 333 z "},"˜":{"ha":882,"x_min":222,"x_max":1132,"o":"m 592 976 l 567 1100 l 497 976 l 222 976 l 350 1206 l 763 1206 l 788 1082 l 857 1206 l 1132 1206 l 1004 976 l 592 976 z "},"™":{"ha":750,"x_min":206,"x_max":872,"o":"m 451 633 l 496 881 l 410 881 l 365 633 l 263 633 l 307 881 l 206 881 l 222 974 l 633 974 l 661 796 l 751 974 l 872 974 l 811 633 l 711 633 l 731 739 l 676 633 l 589 633 l 572 747 l 551 633 l 451 633 z "},"š":{"ha":1044,"x_min":50,"x_max":1154,"o":"m 714 0 l 50 0 l 99 272 l 549 272 q 493 341 524 306 q 433 414 463 376 q 379 491 404 451 q 339 572 354 531 l 757 572 q 820 490 789 531 q 876 410 851 450 q 915 327 900 369 q 931 238 931 285 q 929 212 931 225 q 925 185 928 199 q 899 111 918 144 q 851 53 879 78 q 788 14 824 28 q 714 0 753 0 m 324 633 q 322 644 322 639 q 321 656 321 649 l 321 667 q 325 697 321 681 q 356 780 333 742 q 411 846 379 818 q 482 890 443 874 q 561 906 521 906 l 1154 906 l 1106 633 l 324 633 m 754 1206 l 779 1082 l 849 1206 l 1124 1206 l 996 976 l 526 976 l 479 1206 l 754 1206 z "},"›":{"ha":329,"x_min":72,"x_max":400,"o":"m 138 497 l 150 572 l 379 572 l 317 215 l 72 128 l 121 403 l 253 450 l 138 497 m 400 685 l 390 633 l 161 633 l 186 772 l 400 685 z "},"œ":{"ha":1735,"x_min":117,"x_max":1844,"o":"m 1706 333 l 1233 333 l 1224 272 l 1733 272 l 1685 0 l 578 0 q 384 19 469 0 q 239 78 299 38 q 148 183 179 118 q 117 339 117 247 q 119 392 117 364 q 126 450 121 419 l 128 454 q 157 572 138 518 l 519 572 q 465 454 478 528 l 464 450 q 460 410 460 429 q 628 272 460 285 l 894 272 l 947 572 l 1749 572 l 1706 333 m 183 633 q 401 843 258 781 q 738 906 543 906 l 1844 906 l 1796 633 l 958 633 l 958 635 l 715 635 q 697 634 706 635 q 681 633 689 633 l 183 633 z "},"ž":{"ha":1044,"x_min":151,"x_max":1043,"o":"m 151 0 l 183 185 q 222 292 193 242 q 292 388 251 342 q 383 480 333 435 q 486 572 433 525 l 904 572 q 836 492 874 531 q 758 415 799 453 q 675 342 717 378 q 593 272 633 307 l 1043 272 l 994 0 l 151 0 m 954 656 q 943 633 949 643 l 161 633 l 210 906 l 1003 906 l 967 697 q 962 676 964 686 q 954 656 960 667 m 715 1206 l 990 1206 l 863 976 l 393 976 l 346 1206 l 621 1206 l 646 1082 l 715 1206 z "},"Ÿ":{"ha":1076,"x_min":160,"x_max":1185,"o":"m 746 256 l 701 0 l 372 0 l 417 256 q 227 361 294 285 q 160 572 160 438 l 508 572 q 551 531 522 546 q 628 511 579 515 q 767 572 724 522 l 1117 572 q 975 359 1069 435 q 746 256 881 283 m 164 633 q 167 658 165 644 q 171 685 168 671 l 210 906 l 542 906 l 501 675 q 497 633 497 651 l 164 633 m 800 633 q 808 657 804 644 q 814 683 811 669 l 853 906 l 1185 906 l 1146 685 q 1140 658 1143 671 q 1135 633 1138 646 l 800 633 m 740 976 l 781 1206 l 1056 1206 l 1015 976 l 740 976 m 403 976 l 443 1206 l 718 1206 l 678 976 l 403 976 z "},"¡":{"ha":429,"x_min":50,"x_max":539,"o":"m 379 0 l 50 0 l 151 572 l 481 572 l 379 0 m 210 906 l 539 906 l 490 633 l 161 633 l 210 906 z "},"¢":{"ha":938,"x_min":93,"x_max":1047,"o":"m 738 -108 l 496 -108 l 515 0 l 306 0 q 231 20 268 0 q 163 73 193 40 q 113 147 132 106 q 93 229 93 188 q 94 243 93 236 q 96 257 94 250 l 150 572 l 489 572 q 477 539 482 557 q 469 501 472 521 l 451 403 q 447 354 447 378 q 465 295 447 318 q 533 272 482 272 l 564 272 l 615 572 l 857 572 l 806 272 l 936 272 l 888 0 l 757 0 l 738 -108 m 161 633 l 164 649 q 205 739 172 693 q 282 822 238 785 q 376 882 326 858 q 465 906 425 906 l 675 906 l 694 1015 l 936 1015 l 917 906 l 1047 906 l 999 633 l 596 633 l 589 633 l 161 633 z "},"£":{"ha":1049,"x_min":50,"x_max":1047,"o":"m 669 572 q 683 571 674 571 l 703 571 l 961 571 l 919 335 l 661 335 q 607 328 621 335 q 589 303 593 322 l 589 297 q 603 278 589 285 q 651 272 617 272 l 1047 272 l 999 0 l 50 0 l 99 272 l 247 272 l 250 292 l 261 335 l 108 335 l 150 571 l 304 571 l 304 572 l 669 572 m 310 633 q 351 729 318 681 q 429 817 383 778 q 528 881 475 857 q 633 906 582 906 l 893 906 l 844 633 l 714 633 l 700 633 l 310 633 z "},"¤":{"ha":1043,"x_min":26,"x_max":1178,"o":"m 908 572 q 915 540 913 554 q 918 513 918 525 q 916 481 918 497 q 911 449 914 465 l 911 447 q 856 304 897 363 l 1017 0 l 644 0 l 557 168 l 413 0 l 26 0 l 297 307 q 289 349 292 331 q 286 379 286 367 q 288 411 286 394 q 293 447 290 428 l 293 449 q 336 572 306 524 l 908 572 m 643 736 l 790 906 l 1178 906 l 936 633 l 328 633 l 185 906 l 558 906 l 643 736 m 614 526 q 544 508 563 526 q 518 450 525 490 l 518 449 q 516 433 517 440 q 515 419 515 426 q 531 383 515 394 q 586 372 546 372 q 657 390 638 372 q 683 449 676 408 l 683 450 q 685 465 685 458 q 686 479 686 472 q 670 515 686 504 q 614 526 654 526 z "},"¥":{"ha":1076,"x_min":96,"x_max":1186,"o":"m 985 136 l 726 136 l 718 89 l 976 89 l 943 -106 l 685 -106 l 664 -217 l 335 -217 l 356 -106 l 96 -106 l 129 89 l 389 89 l 397 136 l 138 136 l 172 331 l 432 331 l 442 386 l 374 386 q 308 401 342 386 q 246 442 275 417 q 194 502 217 468 q 164 572 172 536 l 1111 572 q 1057 502 1090 536 q 986 442 1024 468 q 910 401 949 417 q 839 386 871 386 l 771 386 l 761 331 l 1019 331 l 985 136 m 161 633 q 162 636 161 635 q 163 640 163 638 l 210 906 l 539 906 l 518 786 q 514 736 514 758 q 531 678 514 700 q 599 656 547 656 l 708 656 q 764 666 742 656 q 801 694 786 676 q 824 736 815 713 q 836 786 832 760 l 857 906 l 1186 906 l 1139 640 q 1138 633 1138 639 l 161 633 z "},"¦":{"ha":429,"x_min":21,"x_max":568,"o":"m 350 -162 l 21 -162 l 125 424 l 454 424 l 350 -162 m 161 633 l 239 1069 l 568 1069 l 490 633 l 161 633 m 464 482 l 135 482 l 150 572 l 479 572 l 464 482 z "},"§":{"ha":1043,"x_min":26,"x_max":1178,"o":"m 908 572 q 915 540 913 554 q 918 513 918 525 q 916 481 918 497 q 911 449 914 465 l 911 447 q 795 240 886 303 q 565 178 704 178 l 413 0 l 26 0 l 297 307 q 289 349 292 331 q 286 379 286 367 q 288 411 286 394 q 293 447 290 428 l 293 449 q 339 572 306 519 l 908 572 m 642 717 l 804 906 l 1178 906 l 936 633 l 390 633 q 500 694 438 674 q 642 717 563 714 m 614 526 q 544 508 563 526 q 518 450 525 490 l 518 449 q 516 433 517 440 q 515 419 515 426 q 531 383 515 394 q 586 372 546 372 q 657 390 638 372 q 683 449 676 408 l 683 450 q 685 465 685 458 q 686 479 686 472 q 670 515 686 504 q 614 526 654 526 z "},"¨":{"ha":713,"x_min":222,"x_max":875,"o":"m 222 976 l 263 1206 l 538 1206 l 497 976 l 222 976 m 560 976 l 600 1206 l 875 1206 l 835 976 l 560 976 z "},"©":{"ha":418,"x_min":171,"x_max":546,"o":"m 393 1040 q 479 1017 393 1040 q 515 985 501 1004 q 536 944 528 967 q 543 915 540 929 q 546 885 546 900 q 542 846 546 864 q 503 753 533 788 q 421 679 468 701 q 325 653 369 653 q 239 679 278 653 q 185 753 200 706 q 171 817 171 779 q 172 831 171 824 q 174 846 172 839 q 191 897 179 874 q 218 944 203 921 q 300 1017 249 994 q 393 1040 367 1040 m 388 1010 q 328 999 358 1011 q 272 963 297 986 q 229 910 247 940 q 206 846 211 879 l 206 840 q 208 814 206 831 q 213 772 210 797 l 213 768 q 258 708 224 731 q 331 689 290 689 q 411 708 353 689 q 478 768 443 725 q 499 807 490 788 q 511 846 508 826 q 513 859 513 853 q 514 872 514 865 q 511 900 514 886 q 506 929 508 914 q 458 988 493 969 q 388 1010 428 1010 m 414 817 l 443 808 q 340 738 410 738 q 260 817 260 738 q 260 831 260 824 q 263 846 261 838 q 379 957 286 957 q 453 896 446 957 l 424 889 q 375 929 408 929 q 296 846 310 929 q 294 833 294 839 q 293 821 293 826 q 343 768 293 768 q 414 817 393 768 z "},"ª":{"ha":601,"x_min":118,"x_max":669,"o":"m 365 972 l 581 972 l 647 633 l 178 633 l 365 972 m 319 525 l 118 525 l 144 572 l 660 572 l 669 525 l 476 525 l 467 557 l 342 557 l 319 525 m 399 667 l 444 667 l 436 742 l 399 667 z "},"«":{"ha":639,"x_min":88,"x_max":725,"o":"m 367 497 l 235 450 l 350 403 l 301 128 l 88 215 l 150 572 l 379 572 l 367 497 m 676 497 l 544 450 l 660 403 l 611 128 l 397 215 l 460 572 l 689 572 l 676 497 m 161 633 l 171 685 l 415 772 l 390 633 l 161 633 m 471 633 l 481 685 l 725 772 l 700 633 l 471 633 z "},"¬":{"ha":657,"x_min":108,"x_max":707,"o":"m 393 176 l 421 333 l 108 333 l 150 572 l 707 572 l 638 176 l 393 176 z "},"­":{"ha":481,"x_min":108,"x_max":531,"o":"m 489 333 l 108 333 l 150 572 l 531 572 l 489 333 z "},"®":{"ha":419,"x_min":171,"x_max":547,"o":"m 393 1040 q 478 1017 438 1040 q 535 944 519 993 q 547 882 547 913 q 543 846 547 864 q 501 753 535 797 q 466 711 485 728 q 419 679 447 694 q 325 653 368 653 q 238 679 276 653 q 206 711 219 694 q 182 753 193 728 q 171 814 171 800 q 172 830 171 822 q 174 846 172 838 q 190 897 179 874 q 215 944 200 921 q 252 985 232 967 q 299 1017 272 1004 q 393 1040 365 1040 m 388 1010 q 328 999 358 1011 q 273 963 299 986 q 229 910 247 940 q 206 846 211 879 l 206 840 q 208 814 206 831 q 213 772 210 797 l 213 768 q 228 737 218 753 q 257 708 239 721 q 331 686 296 686 q 411 708 368 686 q 447 733 431 718 q 479 768 464 749 q 502 819 494 801 q 513 846 510 836 q 515 861 515 856 q 514 876 514 867 q 512 901 514 888 q 507 929 510 914 l 504 935 q 487 963 497 950 q 457 988 476 976 q 388 1010 431 1010 m 261 740 l 297 949 l 364 949 q 394 948 382 949 q 415 943 406 947 q 426 933 422 939 q 433 924 431 928 q 440 903 440 913 q 439 893 440 894 q 417 853 435 869 q 372 835 399 836 q 392 816 388 828 q 408 782 397 804 l 428 740 l 386 740 l 375 774 q 349 822 361 814 q 326 828 344 828 l 307 828 l 292 740 l 261 740 m 313 857 l 350 857 q 391 865 379 857 q 406 889 403 872 l 407 897 q 393 918 407 914 q 360 919 392 919 l 324 919 l 313 857 z "},"¯":{"ha":800,"x_min":182,"x_max":918,"o":"m 882 749 l 182 749 l 218 954 l 918 954 l 882 749 z "},"°":{"ha":375,"x_min":222,"x_max":538,"o":"m 222 976 l 263 1206 l 538 1206 l 497 976 l 222 976 z "},"±":{"ha":657,"x_min":50,"x_max":731,"o":"m 607 0 l 50 0 l 93 244 l 650 244 l 607 0 m 258 296 l 285 453 l 129 453 l 150 572 l 707 572 l 686 453 l 529 453 l 503 296 l 258 296 m 161 633 l 174 697 l 329 697 l 356 853 l 600 853 l 574 697 l 731 697 l 718 633 l 161 633 z "},"²":{"ha":467,"x_min":161,"x_max":569,"o":"m 532 674 l 525 633 l 161 633 q 210 717 172 678 q 293 794 249 757 l 311 810 l 194 810 l 222 971 l 488 971 q 521 962 506 971 q 547 939 536 953 q 563 908 557 925 q 569 874 569 890 l 568 861 q 558 829 565 846 q 538 800 551 813 l 408 674 l 532 674 m 503 513 l 225 513 q 185 531 200 513 q 164 572 171 549 l 514 572 l 503 513 z "},"³":{"ha":485,"x_min":140,"x_max":593,"o":"m 194 810 l 222 971 l 486 971 q 558 944 526 971 q 593 881 590 918 l 589 858 q 578 824 586 842 q 560 790 571 806 q 538 764 550 775 q 515 750 526 753 l 517 749 q 547 720 539 738 q 556 681 556 703 q 555 666 556 674 q 553 650 554 658 l 549 633 l 163 633 l 169 674 l 340 674 q 356 676 349 674 q 365 688 364 679 l 365 692 q 357 701 365 699 q 342 703 349 703 l 196 703 l 210 782 l 363 782 q 376 785 369 782 q 385 797 383 789 l 386 801 q 368 810 386 810 l 194 810 m 522 572 q 463 528 499 543 q 392 513 428 513 l 140 513 l 151 572 l 522 572 z "},"´":{"ha":375,"x_min":222,"x_max":625,"o":"m 625 1206 l 497 976 l 222 976 l 350 1206 l 625 1206 z "},"µ":{"ha":1075,"x_min":28,"x_max":1185,"o":"m 357 -125 l 28 -125 l 150 572 l 482 572 l 460 444 q 456 417 457 431 q 454 393 454 404 q 485 309 454 339 q 586 272 515 279 q 716 324 675 282 q 771 444 757 365 l 793 572 l 1126 572 l 1104 446 q 1035 244 1083 328 q 915 108 988 161 q 747 28 842 54 q 538 -3 651 1 q 456 4 494 0 q 382 15 418 8 l 357 -125 m 161 633 l 210 906 l 542 906 l 493 633 l 161 633 m 804 633 l 853 906 l 1185 906 l 1136 633 l 804 633 z "},"¶":{"ha":1101,"x_min":132,"x_max":1211,"o":"m 613 -154 l 283 -154 l 350 217 q 266 242 306 219 q 197 299 226 265 q 149 376 167 333 q 132 461 132 419 q 133 477 132 469 q 135 493 133 485 l 149 572 l 740 572 l 613 -154 m 158 633 q 200 729 168 681 q 277 817 232 778 q 376 881 322 856 q 482 906 429 906 l 1211 906 l 1163 633 l 158 633 m 694 -154 l 822 572 l 1151 572 l 1024 -154 l 694 -154 z "},"·":{"ha":428,"x_min":108,"x_max":478,"o":"m 436 333 l 108 333 l 150 572 l 478 572 l 436 333 z "},"¸":{"ha":303,"x_min":-114,"x_max":253,"o":"m 211 -236 l -114 -236 l -81 -46 l 40 -46 l 49 0 l 253 0 l 211 -236 z "},"¹":{"ha":358,"x_min":193,"x_max":479,"o":"m 221 971 l 479 971 l 419 633 l 221 633 l 253 810 l 193 810 l 221 971 m 399 513 l 200 513 l 210 572 l 408 572 l 399 513 z "},"º":{"ha":635,"x_min":165,"x_max":729,"o":"m 179 633 q 178 742 165 681 l 178 743 q 281 918 200 865 q 488 971 361 971 q 598 958 550 971 q 676 918 646 946 q 718 847 707 890 q 718 743 729 804 l 718 742 q 678 633 706 674 l 179 633 m 407 513 q 292 526 340 513 q 214 572 244 540 l 624 572 q 528 526 583 540 q 407 513 474 513 m 458 810 q 398 794 414 810 q 376 744 382 778 l 375 743 q 380 694 369 710 q 435 678 390 678 q 497 694 479 678 q 519 743 514 710 l 521 744 q 515 794 526 778 q 458 810 503 810 z "},"»":{"ha":639,"x_min":72,"x_max":710,"o":"m 447 497 l 460 572 l 689 572 l 626 215 l 382 128 l 431 403 l 563 450 l 447 497 m 138 497 l 150 572 l 379 572 l 317 215 l 72 128 l 121 403 l 253 450 l 138 497 m 710 685 l 700 633 l 471 633 l 496 772 l 710 685 m 400 685 l 390 633 l 161 633 l 186 772 l 400 685 z "},"¼":{"ha":1546,"x_min":100,"x_max":1604,"o":"m 1571 442 l 1564 463 l 1421 556 l 1474 572 l 1554 572 q 1489 543 1533 550 q 1604 460 1604 490 l 1604 457 q 1601 453 1604 456 l 1574 406 l 1483 406 l 1528 318 q 1529 311 1529 317 l 1529 306 l 1528 296 q 1488 247 1519 258 l 1392 268 l 1357 135 q 1314 110 1344 110 q 1272 122 1293 110 q 1222 156 1250 133 l 1101 31 l 1049 18 l 1001 88 l 793 -25 l 764 -14 l 776 56 l 519 10 l 493 31 l 513 88 l 258 113 l 267 156 l 304 193 l 151 225 q 128 251 128 225 q 129 268 128 267 l 200 326 l 100 385 l 100 442 l 214 463 l 167 543 l 176 572 l 204 572 l 204 531 l 257 431 l 126 418 l 276 318 l 157 260 l 385 200 l 293 135 l 569 122 l 525 43 l 785 100 l 807 56 l 789 10 l 1008 122 l 1086 56 l 1210 193 l 1329 143 l 1367 306 l 1494 281 q 1497 290 1496 288 q 1497 293 1497 293 l 1497 300 q 1442 431 1497 342 l 1571 442 m 1436 747 q 1385 682 1425 690 l 1538 633 l 1449 633 l 1313 668 l 1403 736 l 1136 736 l 1169 817 l 903 771 l 906 840 l 888 850 l 689 747 l 624 817 l 492 682 q 467 676 482 676 q 376 725 433 676 l 350 633 l 311 633 q 378 760 338 760 l 382 760 l 486 715 q 567 806 533 774 q 629 850 601 838 l 706 782 l 903 885 l 938 850 l 922 817 l 929 806 l 1136 850 l 1204 840 l 1182 771 l 1418 771 l 1436 747 m 717 456 q 624 317 675 317 q 594 313 607 313 q 540 346 544 313 q 636 521 563 476 q 644 522 642 521 q 644 522 646 522 l 654 522 q 717 456 713 522 m 1100 324 l 1078 332 q 1044 379 1068 379 q 992 332 1022 379 l 956 332 q 1063 531 985 432 q 1089 536 1068 536 q 1122 474 1119 536 l 1100 324 m 850 317 q 758 413 806 317 l 742 318 l 713 311 l 746 514 l 825 385 l 854 524 l 885 514 l 850 317 m 1264 322 q 1175 422 1222 322 l 1157 324 l 1131 321 l 1161 519 l 1239 393 l 1272 532 l 1299 521 l 1264 322 m 560 529 l 547 481 q 539 484 540 483 q 531 485 538 485 q 476 456 506 485 q 436 375 443 418 q 435 363 435 374 q 465 335 435 335 q 501 340 492 335 l 499 306 q 476 300 485 303 q 460 297 467 297 q 407 385 407 297 l 407 386 q 408 400 407 399 l 410 411 q 560 529 426 507 m 678 428 q 676 450 682 444 q 647 476 671 476 q 585 413 619 476 l 583 399 q 603 350 575 350 q 653 368 618 350 q 678 428 672 396 m 972 532 l 928 335 l 883 321 l 936 524 l 972 532 m 411 524 l 367 326 l 324 311 l 379 517 l 411 524 m 1390 519 l 1343 374 l 1315 379 l 1351 532 l 1390 519 m 1083 422 l 1074 490 l 1028 422 l 1083 422 m 1336 311 l 1304 281 l 1286 304 l 1314 324 l 1336 311 m 332 567 l 268 572 l 333 572 l 332 567 z "},"½":{"ha":1164,"x_min":182,"x_max":1176,"o":"m 501 0 l 213 0 l 517 572 l 807 572 l 501 0 m 1138 161 l 1110 0 l 811 0 q 782 9 794 0 q 761 32 769 18 q 749 63 753 46 q 746 96 746 79 q 747 117 746 115 q 768 165 751 142 q 808 212 785 189 q 858 256 832 235 q 907 297 883 276 l 781 297 l 808 458 l 1088 458 q 1120 449 1104 458 q 1149 426 1136 440 q 1169 393 1161 411 q 1176 358 1176 375 q 1176 353 1176 356 q 1175 349 1175 351 q 1165 317 1172 333 q 1143 288 1158 300 l 1007 161 l 1138 161 m 694 906 l 985 906 l 839 633 l 550 633 l 694 906 m 210 906 l 468 906 l 419 633 l 222 633 l 242 744 l 182 744 l 210 906 m 388 447 l 189 447 l 211 572 l 410 572 l 388 447 z "},"¾":{"ha":1485,"x_min":96,"x_max":1540,"o":"m 1540 442 l 1411 431 q 1467 300 1467 342 l 1467 293 q 1466 290 1467 293 q 1464 281 1465 288 l 1336 306 l 1299 143 l 1179 193 l 1056 56 l 978 122 l 758 10 l 776 56 l 754 100 l 494 43 l 539 122 l 263 135 l 354 200 l 126 260 l 246 318 l 96 418 l 226 431 l 174 531 l 174 572 l 238 572 l 301 567 l 303 572 l 1443 572 l 1390 556 l 1533 463 l 1540 442 m 319 633 l 346 725 q 436 676 403 676 q 461 682 451 676 l 593 817 l 658 747 l 857 850 l 875 840 l 872 771 l 1139 817 l 1106 736 l 1372 736 l 1282 668 l 1418 633 l 319 633 m 686 456 q 624 522 682 522 l 614 522 q 613 522 615 522 q 606 521 611 521 q 510 346 532 476 q 564 313 514 313 q 593 317 576 313 q 686 456 644 317 m 1069 324 l 1092 474 q 1058 536 1089 536 q 1032 531 1038 536 q 925 332 954 432 l 961 332 q 1014 379 992 379 q 1047 332 1038 379 l 1069 324 m 819 317 l 854 514 l 824 524 l 794 385 l 715 514 l 682 311 l 711 318 l 728 413 q 819 317 775 317 m 1233 322 l 1268 521 l 1242 532 l 1208 393 l 1131 519 l 1100 321 l 1126 324 l 1144 422 q 1233 322 1192 322 m 529 529 q 379 411 396 507 l 378 400 q 376 386 376 399 l 376 385 q 429 297 376 297 q 445 300 436 297 q 468 306 454 303 l 471 340 q 435 335 461 335 q 404 363 404 335 q 406 375 404 374 q 446 456 413 418 q 500 485 475 485 q 508 484 507 485 q 517 481 510 483 l 529 529 m 647 428 q 622 368 642 396 q 572 350 588 350 q 553 399 544 350 l 554 413 q 617 476 589 476 q 646 450 640 476 q 647 428 651 444 m 942 532 l 906 524 l 853 321 l 897 335 l 942 532 m 381 524 l 349 517 l 293 311 l 336 326 l 381 524 m 1360 519 l 1321 532 l 1285 379 l 1313 374 l 1360 519 m 1053 422 l 997 422 l 1043 490 l 1053 422 m 1306 311 l 1283 324 l 1256 304 l 1274 281 l 1306 311 z "},"¿":{"ha":788,"x_min":79,"x_max":858,"o":"m 386 571 l 800 571 q 662 422 744 493 q 496 272 579 350 l 786 272 l 738 0 l 247 0 q 181 13 211 0 q 128 48 150 25 q 92 101 106 71 q 79 169 79 132 q 83 208 79 188 q 88 229 86 219 q 96 250 90 239 q 146 337 114 294 q 217 419 178 379 q 301 497 257 458 q 386 571 344 535 m 810 633 l 481 633 l 529 906 l 858 906 l 810 633 z "},"À":{"ha":1139,"x_min":22,"x_max":1117,"o":"m 769 139 l 433 139 l 361 0 l 22 0 l 301 572 l 646 572 l 549 381 l 739 381 l 708 572 l 1039 572 l 1117 0 l 792 0 l 769 139 m 332 633 l 465 906 l 993 906 l 1031 633 l 699 633 l 694 667 l 678 633 l 332 633 m 622 976 l 575 1206 l 850 1206 l 897 976 l 622 976 z "},"Á":{"ha":1139,"x_min":22,"x_max":1117,"o":"m 769 139 l 433 139 l 361 0 l 22 0 l 301 572 l 646 572 l 549 381 l 739 381 l 708 572 l 1039 572 l 1117 0 l 792 0 l 769 139 m 332 633 l 465 906 l 993 906 l 1031 633 l 699 633 l 694 667 l 678 633 l 332 633 m 988 1206 l 860 976 l 585 976 l 713 1206 l 988 1206 z "},"Â":{"ha":1139,"x_min":22,"x_max":1117,"o":"m 769 139 l 433 139 l 361 0 l 22 0 l 301 572 l 646 572 l 549 381 l 739 381 l 708 572 l 1039 572 l 1117 0 l 792 0 l 769 139 m 332 633 l 465 906 l 993 906 l 1031 633 l 699 633 l 694 667 l 678 633 l 332 633 m 789 976 l 764 1100 l 694 976 l 419 976 l 547 1206 l 1017 1206 l 1064 976 l 789 976 z "},"Ã":{"ha":1139,"x_min":22,"x_max":1217,"o":"m 769 139 l 433 139 l 361 0 l 22 0 l 301 572 l 646 572 l 549 381 l 739 381 l 708 572 l 1039 572 l 1117 0 l 792 0 l 769 139 m 676 976 l 651 1100 l 582 976 l 307 976 l 435 1206 l 847 1206 l 872 1082 l 942 1206 l 1217 1206 l 1089 976 l 676 976 m 332 633 l 465 906 l 993 906 l 1031 633 l 699 633 l 694 667 l 678 633 l 332 633 z "},"Ä":{"ha":1139,"x_min":22,"x_max":1117,"o":"m 769 139 l 433 139 l 361 0 l 22 0 l 301 572 l 646 572 l 549 381 l 739 381 l 708 572 l 1039 572 l 1117 0 l 792 0 l 769 139 m 332 633 l 465 906 l 993 906 l 1031 633 l 699 633 l 694 667 l 678 633 l 332 633 m 772 976 l 813 1206 l 1088 1206 l 1047 976 l 772 976 m 435 976 l 475 1206 l 750 1206 l 710 976 l 435 976 z "},"Å":{"ha":1139,"x_min":22,"x_max":1117,"o":"m 769 139 l 433 139 l 361 0 l 22 0 l 301 572 l 646 572 l 549 381 l 739 381 l 708 572 l 1039 572 l 1117 0 l 792 0 l 769 139 m 332 633 l 465 906 l 993 906 l 1031 633 l 699 633 l 694 667 l 678 633 l 332 633 m 604 976 l 644 1206 l 919 1206 l 879 976 l 604 976 z "},"Æ":{"ha":1894,"x_min":22,"x_max":2004,"o":"m 769 139 l 433 139 l 361 0 l 22 0 l 301 572 l 646 572 l 549 381 l 739 381 l 708 572 l 1038 572 l 1068 354 l 1106 572 l 1908 572 l 1865 333 l 1393 333 l 1383 272 l 1893 272 l 1844 0 l 792 0 l 769 139 m 1117 633 l 1165 906 l 2004 906 l 1956 633 l 1117 633 m 332 633 l 465 906 l 993 906 l 1029 633 l 699 633 l 694 667 l 678 633 l 332 633 z "},"Ç":{"ha":935,"x_min":107,"x_max":1044,"o":"m 618 -236 l 293 -236 l 326 -46 l 447 -46 l 457 6 q 293 47 364 17 q 179 132 222 78 q 122 265 136 186 q 126 450 107 343 l 128 454 q 157 572 138 518 l 519 572 q 465 454 478 528 l 464 450 q 460 410 460 429 q 628 272 460 285 l 933 272 l 885 0 l 660 0 l 618 -236 m 183 633 q 401 843 258 781 q 738 906 543 906 l 1044 906 l 997 635 l 715 635 q 697 634 706 635 q 681 633 689 633 l 183 633 z "},"È":{"ha":939,"x_min":50,"x_max":1049,"o":"m 910 333 l 438 333 l 428 272 l 938 272 l 889 0 l 50 0 l 150 572 l 953 572 l 910 333 m 161 633 l 210 906 l 1049 906 l 1000 633 l 161 633 m 522 976 l 475 1206 l 750 1206 l 797 976 l 522 976 z "},"É":{"ha":939,"x_min":50,"x_max":1049,"o":"m 910 333 l 438 333 l 428 272 l 938 272 l 889 0 l 50 0 l 150 572 l 953 572 l 910 333 m 161 633 l 210 906 l 1049 906 l 1000 633 l 161 633 m 889 1206 l 761 976 l 486 976 l 614 1206 l 889 1206 z "},"Ê":{"ha":939,"x_min":50,"x_max":1049,"o":"m 910 333 l 438 333 l 428 272 l 938 272 l 889 0 l 50 0 l 150 572 l 953 572 l 910 333 m 161 633 l 210 906 l 1049 906 l 1000 633 l 161 633 m 689 976 l 664 1100 l 594 976 l 319 976 l 447 1206 l 917 1206 l 964 976 l 689 976 z "},"Ë":{"ha":939,"x_min":50,"x_max":1049,"o":"m 910 333 l 438 333 l 428 272 l 938 272 l 889 0 l 50 0 l 150 572 l 953 572 l 910 333 m 161 633 l 210 906 l 1049 906 l 1000 633 l 161 633 m 672 976 l 713 1206 l 988 1206 l 947 976 l 672 976 m 335 976 l 375 1206 l 650 1206 l 610 976 l 335 976 z "},"Ì":{"ha":429,"x_min":50,"x_max":568,"o":"m 379 0 l 50 0 l 150 572 l 479 572 l 379 0 m 539 906 l 490 633 l 161 633 l 210 906 l 539 906 m 293 976 l 246 1206 l 521 1206 l 568 976 l 293 976 z "},"Í":{"ha":429,"x_min":50,"x_max":608,"o":"m 379 0 l 50 0 l 150 572 l 479 572 l 379 0 m 539 906 l 490 633 l 161 633 l 210 906 l 539 906 m 608 1206 l 481 976 l 206 976 l 333 1206 l 608 1206 z "},"Î":{"ha":429,"x_min":50,"x_max":710,"o":"m 379 0 l 50 0 l 150 572 l 479 572 l 379 0 m 435 976 l 410 1100 l 340 976 l 65 976 l 193 1206 l 663 1206 l 710 976 l 435 976 m 539 906 l 490 633 l 161 633 l 210 906 l 539 906 z "},"Ï":{"ha":429,"x_min":50,"x_max":733,"o":"m 379 0 l 50 0 l 150 572 l 479 572 l 379 0 m 539 906 l 490 633 l 161 633 l 210 906 l 539 906 m 418 976 l 458 1206 l 733 1206 l 693 976 l 418 976 m 81 976 l 121 1206 l 396 1206 l 356 976 l 81 976 z "},"Ð":{"ha":1192,"x_min":108,"x_max":1258,"o":"m 165 0 l 224 333 l 108 333 l 151 572 l 731 572 l 688 333 l 553 333 l 543 272 l 756 272 q 811 283 789 272 q 848 311 833 293 q 870 353 863 329 q 882 403 878 376 l 900 501 q 904 553 904 528 q 903 563 904 558 q 903 572 903 567 l 1242 572 l 1188 257 q 1147 167 1179 213 q 1069 84 1114 121 q 976 24 1025 47 q 886 0 926 0 l 165 0 m 276 633 l 325 906 l 1046 906 q 1119 885 1082 906 q 1188 833 1157 865 q 1239 759 1219 800 q 1258 676 1258 718 q 1258 663 1258 669 q 1256 649 1257 656 l 1253 633 l 276 633 z "},"Ñ":{"ha":1076,"x_min":50,"x_max":1186,"o":"m 1026 0 l 707 0 l 453 415 l 379 0 l 50 0 l 150 572 l 733 572 l 783 492 l 797 572 l 1126 572 l 1026 0 m 644 976 l 619 1100 l 550 976 l 275 976 l 403 1206 l 815 1206 l 840 1082 l 910 1206 l 1185 1206 l 1057 976 l 644 976 m 161 633 l 210 906 l 531 906 l 696 633 l 161 633 m 808 633 l 857 906 l 1186 906 l 1138 633 l 808 633 z "},"Ò":{"ha":1179,"x_min":117,"x_max":1222,"o":"m 588 -7 q 392 13 479 -7 q 243 74 304 32 q 149 183 182 117 q 117 343 117 249 q 119 394 117 368 q 126 450 121 421 l 126 453 q 140 515 132 485 q 158 572 147 544 l 511 572 q 463 453 475 526 l 463 450 q 457 392 457 439 q 497 297 457 329 q 636 264 536 264 q 736 276 694 264 q 806 313 778 289 q 851 371 835 336 q 875 450 867 406 l 875 453 q 881 507 881 464 q 867 572 881 546 l 1222 572 l 1222 563 q 1219 510 1222 538 q 1211 453 1217 483 l 1211 450 q 1135 240 1189 326 q 1000 98 1081 153 q 815 18 919 43 q 588 -7 710 -7 m 701 640 q 658 638 678 640 q 622 633 639 636 l 186 633 q 408 844 263 779 q 749 910 554 910 q 926 894 846 910 q 1067 844 1007 878 q 1166 758 1128 811 q 1217 633 1204 706 l 776 633 q 701 640 738 640 m 643 976 l 596 1206 l 871 1206 l 918 976 l 643 976 z "},"Ó":{"ha":1179,"x_min":117,"x_max":1222,"o":"m 588 -7 q 392 13 479 -7 q 243 74 304 32 q 149 183 182 117 q 117 343 117 249 q 119 394 117 368 q 126 450 121 421 l 126 453 q 140 515 132 485 q 158 572 147 544 l 511 572 q 463 453 475 526 l 463 450 q 457 392 457 439 q 497 297 457 329 q 636 264 536 264 q 736 276 694 264 q 806 313 778 289 q 851 371 835 336 q 875 450 867 406 l 875 453 q 881 507 881 464 q 867 572 881 546 l 1222 572 l 1222 563 q 1219 510 1222 538 q 1211 453 1217 483 l 1211 450 q 1135 240 1189 326 q 1000 98 1081 153 q 815 18 919 43 q 588 -7 710 -7 m 701 640 q 658 638 678 640 q 622 633 639 636 l 186 633 q 408 844 263 779 q 749 910 554 910 q 926 894 846 910 q 1067 844 1007 878 q 1166 758 1128 811 q 1217 633 1204 706 l 776 633 q 701 640 738 640 m 1008 1206 l 881 976 l 606 976 l 733 1206 l 1008 1206 z "},"Ô":{"ha":1179,"x_min":117,"x_max":1222,"o":"m 588 -7 q 392 13 479 -7 q 243 74 304 32 q 149 183 182 117 q 117 343 117 249 q 119 394 117 368 q 126 450 121 421 l 126 453 q 140 515 132 485 q 158 572 147 544 l 511 572 q 463 453 475 526 l 463 450 q 457 392 457 439 q 497 297 457 329 q 636 264 536 264 q 736 276 694 264 q 806 313 778 289 q 851 371 835 336 q 875 450 867 406 l 875 453 q 881 507 881 464 q 867 572 881 546 l 1222 572 l 1222 563 q 1219 510 1222 538 q 1211 453 1217 483 l 1211 450 q 1135 240 1189 326 q 1000 98 1081 153 q 815 18 919 43 q 588 -7 710 -7 m 701 640 q 658 638 678 640 q 622 633 639 636 l 186 633 q 408 844 263 779 q 749 910 554 910 q 926 894 846 910 q 1067 844 1007 878 q 1166 758 1128 811 q 1217 633 1204 706 l 776 633 q 701 640 738 640 m 808 976 l 783 1100 l 714 976 l 439 976 l 567 1206 l 1036 1206 l 1083 976 l 808 976 z "},"Õ":{"ha":1179,"x_min":117,"x_max":1236,"o":"m 588 -7 q 392 13 479 -7 q 243 74 304 32 q 149 183 182 117 q 117 343 117 249 q 119 394 117 368 q 126 450 121 421 l 126 453 q 140 515 132 485 q 158 572 147 544 l 511 572 q 463 453 475 526 l 463 450 q 457 392 457 439 q 497 297 457 329 q 636 264 536 264 q 736 276 694 264 q 806 313 778 289 q 851 371 835 336 q 875 450 867 406 l 875 453 q 881 507 881 464 q 867 572 881 546 l 1222 572 l 1222 563 q 1219 510 1222 538 q 1211 453 1217 483 l 1211 450 q 1135 240 1189 326 q 1000 98 1081 153 q 815 18 919 43 q 588 -7 710 -7 m 701 640 q 658 638 678 640 q 622 633 639 636 l 186 633 q 408 844 263 779 q 749 910 554 910 q 926 894 846 910 q 1067 844 1007 878 q 1166 758 1128 811 q 1217 633 1204 706 l 776 633 q 701 640 738 640 m 696 976 l 671 1100 l 601 976 l 326 976 l 454 1206 l 867 1206 l 892 1082 l 961 1206 l 1236 1206 l 1108 976 l 696 976 z "},"Ö":{"ha":1179,"x_min":117,"x_max":1222,"o":"m 588 -7 q 392 13 479 -7 q 243 74 304 32 q 149 183 182 117 q 117 343 117 249 q 119 394 117 368 q 126 450 121 421 l 126 453 q 140 515 132 485 q 158 572 147 544 l 511 572 q 463 453 475 526 l 463 450 q 457 392 457 439 q 497 297 457 329 q 636 264 536 264 q 736 276 694 264 q 806 313 778 289 q 851 371 835 336 q 875 450 867 406 l 875 453 q 881 507 881 464 q 867 572 881 546 l 1222 572 l 1222 563 q 1219 510 1222 538 q 1211 453 1217 483 l 1211 450 q 1135 240 1189 326 q 1000 98 1081 153 q 815 18 919 43 q 588 -7 710 -7 m 701 640 q 658 638 678 640 q 622 633 639 636 l 186 633 q 408 844 263 779 q 749 910 554 910 q 926 894 846 910 q 1067 844 1007 878 q 1166 758 1128 811 q 1217 633 1204 706 l 776 633 q 701 640 738 640 m 793 976 l 833 1206 l 1108 1206 l 1068 976 l 793 976 m 456 976 l 496 1206 l 771 1206 l 731 976 l 456 976 z "},"×":{"ha":618,"x_min":86,"x_max":692,"o":"m 86 344 l 217 456 l 126 565 l 135 572 l 686 572 l 692 565 l 563 456 l 654 344 l 451 171 l 360 282 l 229 171 l 86 344 m 207 633 l 331 738 l 415 633 l 207 633 m 426 633 l 550 738 l 635 633 l 426 633 z "},"Ø":{"ha":1176,"x_min":117,"x_max":1219,"o":"m 586 -7 q 390 13 478 -7 q 242 74 303 32 q 149 183 182 117 q 117 343 117 249 q 119 394 117 368 q 126 450 121 421 l 126 453 q 140 515 132 485 q 158 572 147 544 l 511 572 q 463 453 475 526 l 463 450 q 458 419 460 435 q 457 390 457 404 q 459 369 457 381 q 464 342 461 357 l 589 572 l 1219 572 l 1219 564 q 1217 510 1219 538 q 1208 453 1214 483 l 1208 450 q 1132 240 1186 326 q 998 98 1078 153 q 813 18 918 43 q 586 -7 708 -7 m 186 633 q 408 844 263 779 q 747 910 553 910 q 925 894 844 910 q 1065 844 1006 878 q 1163 758 1125 811 q 1214 633 1201 706 l 186 633 m 872 453 q 877 484 875 471 q 879 508 879 497 q 876 539 879 525 q 868 567 874 553 l 713 271 q 824 332 788 286 q 872 450 860 378 l 872 453 z "},"Ù":{"ha":1075,"x_min":93,"x_max":1186,"o":"m 451 403 q 447 354 447 378 q 465 295 447 318 q 533 272 482 272 l 640 272 q 696 283 674 272 q 733 311 718 293 q 755 353 747 329 q 767 403 763 376 l 796 572 l 1128 572 l 1072 257 q 1031 167 1064 213 q 954 84 999 121 q 860 24 910 47 q 771 0 811 0 l 306 0 q 231 20 268 0 q 163 73 193 40 q 113 147 132 106 q 93 229 93 188 q 94 243 93 236 q 96 257 94 250 l 151 572 l 481 572 l 451 403 m 161 633 l 210 906 l 540 906 l 492 633 l 161 633 m 807 633 l 856 906 l 1186 906 l 1138 633 l 807 633 m 590 976 l 543 1206 l 818 1206 l 865 976 l 590 976 z "},"Ú":{"ha":1075,"x_min":93,"x_max":1186,"o":"m 451 403 q 447 354 447 378 q 465 295 447 318 q 533 272 482 272 l 640 272 q 696 283 674 272 q 733 311 718 293 q 755 353 747 329 q 767 403 763 376 l 796 572 l 1128 572 l 1072 257 q 1031 167 1064 213 q 954 84 999 121 q 860 24 910 47 q 771 0 811 0 l 306 0 q 231 20 268 0 q 163 73 193 40 q 113 147 132 106 q 93 229 93 188 q 94 243 93 236 q 96 257 94 250 l 151 572 l 481 572 l 451 403 m 161 633 l 210 906 l 540 906 l 492 633 l 161 633 m 807 633 l 856 906 l 1186 906 l 1138 633 l 807 633 m 957 1206 l 829 976 l 554 976 l 682 1206 l 957 1206 z "},"Û":{"ha":1075,"x_min":93,"x_max":1186,"o":"m 451 403 q 447 354 447 378 q 465 295 447 318 q 533 272 482 272 l 640 272 q 696 283 674 272 q 733 311 718 293 q 755 353 747 329 q 767 403 763 376 l 796 572 l 1128 572 l 1072 257 q 1031 167 1064 213 q 954 84 999 121 q 860 24 910 47 q 771 0 811 0 l 306 0 q 231 20 268 0 q 163 73 193 40 q 113 147 132 106 q 93 229 93 188 q 94 243 93 236 q 96 257 94 250 l 151 572 l 481 572 l 451 403 m 757 976 l 732 1100 l 663 976 l 388 976 l 515 1206 l 985 1206 l 1032 976 l 757 976 m 161 633 l 210 906 l 540 906 l 492 633 l 161 633 m 807 633 l 856 906 l 1186 906 l 1138 633 l 807 633 z "},"Ü":{"ha":1075,"x_min":93,"x_max":1186,"o":"m 451 403 q 447 354 447 378 q 465 295 447 318 q 533 272 482 272 l 640 272 q 696 283 674 272 q 733 311 718 293 q 755 353 747 329 q 767 403 763 376 l 796 572 l 1128 572 l 1072 257 q 1031 167 1064 213 q 954 84 999 121 q 860 24 910 47 q 771 0 811 0 l 306 0 q 231 20 268 0 q 163 73 193 40 q 113 147 132 106 q 93 229 93 188 q 94 243 93 236 q 96 257 94 250 l 151 572 l 481 572 l 451 403 m 807 633 l 856 906 l 1186 906 l 1138 633 l 807 633 m 161 633 l 210 906 l 540 906 l 492 633 l 161 633 m 740 976 l 781 1206 l 1056 1206 l 1015 976 l 740 976 m 403 976 l 443 1206 l 718 1206 l 678 976 l 403 976 z "},"Ý":{"ha":1076,"x_min":160,"x_max":1185,"o":"m 701 0 l 372 0 l 417 256 q 227 361 294 285 q 160 572 160 438 l 507 572 q 628 511 531 522 q 768 572 725 522 l 1117 572 q 975 359 1069 435 q 746 256 881 283 l 701 0 m 503 683 q 497 633 497 663 l 164 633 q 167 658 165 644 q 171 685 168 671 l 210 906 l 542 906 l 503 683 m 1146 685 q 1140 658 1143 671 q 1135 633 1138 646 l 801 633 q 814 683 807 656 l 853 906 l 1185 906 l 1146 685 m 829 976 l 554 976 l 682 1206 l 957 1206 l 829 976 z "},"Þ":{"ha":1076,"x_min":50,"x_max":1119,"o":"m 50 0 l 150 572 l 1118 572 q 1119 560 1118 565 q 1119 549 1119 554 q 1119 532 1119 540 q 1117 515 1118 524 l 1097 406 q 1056 310 1089 360 q 976 221 1022 261 q 877 155 931 181 q 774 129 824 129 l 401 129 l 379 0 l 50 0 m 161 633 l 210 906 l 539 906 l 518 790 l 890 790 q 958 778 925 790 q 1019 744 992 765 q 1069 694 1047 722 q 1103 633 1090 665 l 161 633 m 672 397 q 743 413 724 397 q 769 457 763 428 q 771 474 771 458 q 756 506 771 494 q 694 518 740 518 l 471 518 l 449 397 l 672 397 z "},"ß":{"ha":1082,"x_min":32,"x_max":1149,"o":"m 1131 572 q 1046 461 1097 503 q 1076 400 1064 435 q 1089 326 1089 365 q 1088 309 1089 318 q 1086 292 1088 300 l 1083 272 q 1042 176 1075 224 q 964 88 1010 128 q 865 24 918 49 q 760 0 811 0 l 449 0 l 497 272 l 679 272 q 733 280 718 272 q 750 303 747 288 q 751 313 751 304 q 738 331 751 326 q 689 335 725 335 l 507 335 l 549 571 l 731 571 l 749 571 q 764 572 760 571 l 1131 572 m 563 633 l 549 633 l 158 633 q 199 729 167 681 q 278 817 232 778 q 377 881 324 857 q 482 906 431 906 l 919 906 q 1008 885 967 906 q 1081 831 1050 864 q 1131 754 1113 797 q 1149 667 1149 711 q 1148 650 1149 658 q 1146 633 1147 642 l 563 633 m 371 -89 l 32 -89 l 147 572 l 488 572 l 371 -89 z "},"à":{"ha":1139,"x_min":22,"x_max":1117,"o":"m 769 139 l 433 139 l 361 0 l 22 0 l 301 572 l 646 572 l 549 381 l 739 381 l 708 572 l 1039 572 l 1117 0 l 792 0 l 769 139 m 332 633 l 465 906 l 993 906 l 1031 633 l 699 633 l 694 667 l 678 633 l 332 633 m 622 976 l 575 1206 l 850 1206 l 897 976 l 622 976 z "},"á":{"ha":1139,"x_min":22,"x_max":1117,"o":"m 769 139 l 433 139 l 361 0 l 22 0 l 301 572 l 646 572 l 549 381 l 739 381 l 708 572 l 1039 572 l 1117 0 l 792 0 l 769 139 m 332 633 l 465 906 l 993 906 l 1031 633 l 699 633 l 694 667 l 678 633 l 332 633 m 988 1206 l 860 976 l 585 976 l 713 1206 l 988 1206 z "},"â":{"ha":1139,"x_min":22,"x_max":1117,"o":"m 769 139 l 433 139 l 361 0 l 22 0 l 301 572 l 646 572 l 549 381 l 739 381 l 708 572 l 1039 572 l 1117 0 l 792 0 l 769 139 m 332 633 l 465 906 l 993 906 l 1031 633 l 699 633 l 694 667 l 678 633 l 332 633 m 789 976 l 764 1100 l 694 976 l 419 976 l 547 1206 l 1017 1206 l 1064 976 l 789 976 z "},"ã":{"ha":1139,"x_min":22,"x_max":1217,"o":"m 769 139 l 433 139 l 361 0 l 22 0 l 301 572 l 646 572 l 549 381 l 739 381 l 708 572 l 1039 572 l 1117 0 l 792 0 l 769 139 m 676 976 l 651 1100 l 582 976 l 307 976 l 435 1206 l 847 1206 l 872 1082 l 942 1206 l 1217 1206 l 1089 976 l 676 976 m 332 633 l 465 906 l 993 906 l 1031 633 l 699 633 l 694 667 l 678 633 l 332 633 z "},"ä":{"ha":1139,"x_min":22,"x_max":1117,"o":"m 769 139 l 433 139 l 361 0 l 22 0 l 301 572 l 646 572 l 549 381 l 739 381 l 708 572 l 1039 572 l 1117 0 l 792 0 l 769 139 m 332 633 l 465 906 l 993 906 l 1031 633 l 699 633 l 694 667 l 678 633 l 332 633 m 772 976 l 813 1206 l 1088 1206 l 1047 976 l 772 976 m 435 976 l 475 1206 l 750 1206 l 710 976 l 435 976 z "},"å":{"ha":1139,"x_min":22,"x_max":1117,"o":"m 769 139 l 433 139 l 361 0 l 22 0 l 301 572 l 646 572 l 549 381 l 739 381 l 708 572 l 1039 572 l 1117 0 l 792 0 l 769 139 m 332 633 l 465 906 l 993 906 l 1031 633 l 699 633 l 694 667 l 678 633 l 332 633 m 604 976 l 644 1206 l 919 1206 l 879 976 l 604 976 z "},"æ":{"ha":1894,"x_min":22,"x_max":2004,"o":"m 769 139 l 433 139 l 361 0 l 22 0 l 301 572 l 646 572 l 549 381 l 739 381 l 708 572 l 1038 572 l 1068 354 l 1106 572 l 1908 572 l 1865 333 l 1393 333 l 1383 272 l 1893 272 l 1844 0 l 792 0 l 769 139 m 1117 633 l 1165 906 l 2004 906 l 1956 633 l 1117 633 m 332 633 l 465 906 l 993 906 l 1029 633 l 699 633 l 694 667 l 678 633 l 332 633 z "},"ç":{"ha":935,"x_min":107,"x_max":1044,"o":"m 618 -236 l 293 -236 l 326 -46 l 447 -46 l 457 6 q 293 47 364 17 q 179 132 222 78 q 122 265 136 186 q 126 450 107 343 l 128 454 q 157 572 138 518 l 519 572 q 465 454 478 528 l 464 450 q 460 410 460 429 q 628 272 460 285 l 933 272 l 885 0 l 660 0 l 618 -236 m 183 633 q 401 843 258 781 q 738 906 543 906 l 1044 906 l 997 635 l 715 635 q 697 634 706 635 q 681 633 689 633 l 183 633 z "},"è":{"ha":939,"x_min":50,"x_max":1049,"o":"m 910 333 l 438 333 l 428 272 l 938 272 l 889 0 l 50 0 l 150 572 l 953 572 l 910 333 m 161 633 l 210 906 l 1049 906 l 1000 633 l 161 633 m 522 976 l 475 1206 l 750 1206 l 797 976 l 522 976 z "},"é":{"ha":939,"x_min":50,"x_max":1049,"o":"m 910 333 l 438 333 l 428 272 l 938 272 l 889 0 l 50 0 l 150 572 l 953 572 l 910 333 m 161 633 l 210 906 l 1049 906 l 1000 633 l 161 633 m 889 1206 l 761 976 l 486 976 l 614 1206 l 889 1206 z "},"ê":{"ha":939,"x_min":50,"x_max":1049,"o":"m 910 333 l 438 333 l 428 272 l 938 272 l 889 0 l 50 0 l 150 572 l 953 572 l 910 333 m 161 633 l 210 906 l 1049 906 l 1000 633 l 161 633 m 689 976 l 664 1100 l 594 976 l 319 976 l 447 1206 l 917 1206 l 964 976 l 689 976 z "},"ë":{"ha":939,"x_min":50,"x_max":1049,"o":"m 910 333 l 438 333 l 428 272 l 938 272 l 889 0 l 50 0 l 150 572 l 953 572 l 910 333 m 161 633 l 210 906 l 1049 906 l 1000 633 l 161 633 m 672 976 l 713 1206 l 988 1206 l 947 976 l 672 976 m 335 976 l 375 1206 l 650 1206 l 610 976 l 335 976 z "},"ì":{"ha":429,"x_min":50,"x_max":568,"o":"m 379 0 l 50 0 l 150 572 l 479 572 l 379 0 m 539 906 l 490 633 l 161 633 l 210 906 l 539 906 m 293 976 l 246 1206 l 521 1206 l 568 976 l 293 976 z "},"í":{"ha":429,"x_min":50,"x_max":608,"o":"m 379 0 l 50 0 l 150 572 l 479 572 l 379 0 m 539 906 l 490 633 l 161 633 l 210 906 l 539 906 m 608 1206 l 481 976 l 206 976 l 333 1206 l 608 1206 z "},"î":{"ha":429,"x_min":50,"x_max":710,"o":"m 379 0 l 50 0 l 150 572 l 479 572 l 379 0 m 435 976 l 410 1100 l 340 976 l 65 976 l 193 1206 l 663 1206 l 710 976 l 435 976 m 539 906 l 490 633 l 161 633 l 210 906 l 539 906 z "},"ï":{"ha":429,"x_min":50,"x_max":733,"o":"m 379 0 l 50 0 l 150 572 l 479 572 l 379 0 m 539 906 l 490 633 l 161 633 l 210 906 l 539 906 m 418 976 l 458 1206 l 733 1206 l 693 976 l 418 976 m 81 976 l 121 1206 l 396 1206 l 356 976 l 81 976 z "},"ð":{"ha":1071,"x_min":82,"x_max":1115,"o":"m 1115 567 q 1113 515 1115 543 q 1104 454 1110 486 l 1103 450 q 1030 241 1082 326 q 899 102 978 156 q 718 24 821 49 q 493 0 615 0 l 250 0 q 183 13 214 0 q 131 48 153 25 q 95 101 108 71 q 82 169 82 132 q 86 208 82 188 l 113 356 q 135 412 117 379 q 184 474 154 444 q 252 524 214 503 q 335 544 290 544 l 767 544 q 754 572 763 560 l 1115 572 l 1115 567 m 582 635 l 163 635 l 210 906 l 492 906 l 515 1036 l 844 1036 l 818 892 q 1016 807 940 868 q 1110 633 1092 746 l 621 633 q 602 634 611 633 q 582 635 593 635 m 718 338 l 471 338 q 448 324 463 338 q 431 300 433 310 l 426 272 l 571 272 q 658 294 622 276 q 718 338 693 311 z "},"ñ":{"ha":1076,"x_min":50,"x_max":1186,"o":"m 1026 0 l 707 0 l 453 415 l 379 0 l 50 0 l 150 572 l 1126 572 l 1026 0 m 644 976 l 619 1100 l 550 976 l 275 976 l 403 1206 l 815 1206 l 840 1082 l 910 1206 l 1185 1206 l 1057 976 l 644 976 m 161 633 l 210 906 l 531 906 l 696 633 l 161 633 m 808 633 l 857 906 l 1186 906 l 1138 633 l 808 633 z "},"ò":{"ha":1179,"x_min":117,"x_max":1222,"o":"m 588 -7 q 392 13 479 -7 q 243 74 304 32 q 149 183 182 117 q 117 343 117 249 q 119 394 117 368 q 126 450 121 421 l 126 453 q 140 515 132 485 q 158 572 147 544 l 511 572 q 463 453 475 526 l 463 450 q 457 392 457 439 q 497 297 457 329 q 636 264 536 264 q 736 276 694 264 q 806 313 778 289 q 851 371 835 336 q 875 450 867 406 l 875 453 q 881 507 881 464 q 867 572 881 546 l 1222 572 l 1222 563 q 1219 510 1222 538 q 1211 453 1217 483 l 1211 450 q 1135 240 1189 326 q 1000 98 1081 153 q 815 18 919 43 q 588 -7 710 -7 m 701 640 q 658 638 678 640 q 622 633 639 636 l 186 633 q 408 844 263 779 q 749 910 554 910 q 926 894 846 910 q 1067 844 1007 878 q 1166 758 1128 811 q 1217 633 1204 706 l 776 633 q 701 640 738 640 m 643 976 l 596 1206 l 871 1206 l 918 976 l 643 976 z "},"ó":{"ha":1179,"x_min":117,"x_max":1222,"o":"m 588 -7 q 392 13 479 -7 q 243 74 304 32 q 149 183 182 117 q 117 343 117 249 q 119 394 117 368 q 126 450 121 421 l 126 453 q 140 515 132 485 q 158 572 147 544 l 511 572 q 463 453 475 526 l 463 450 q 457 392 457 439 q 497 297 457 329 q 636 264 536 264 q 736 276 694 264 q 806 313 778 289 q 851 371 835 336 q 875 450 867 406 l 875 453 q 881 507 881 464 q 867 572 881 546 l 1222 572 l 1222 563 q 1219 510 1222 538 q 1211 453 1217 483 l 1211 450 q 1135 240 1189 326 q 1000 98 1081 153 q 815 18 919 43 q 588 -7 710 -7 m 701 640 q 658 638 678 640 q 622 633 639 636 l 186 633 q 408 844 263 779 q 749 910 554 910 q 926 894 846 910 q 1067 844 1007 878 q 1166 758 1128 811 q 1217 633 1204 706 l 776 633 q 701 640 738 640 m 1008 1206 l 881 976 l 606 976 l 733 1206 l 1008 1206 z "},"ô":{"ha":1179,"x_min":117,"x_max":1222,"o":"m 588 -7 q 392 13 479 -7 q 243 74 304 32 q 149 183 182 117 q 117 343 117 249 q 119 394 117 368 q 126 450 121 421 l 126 453 q 140 515 132 485 q 158 572 147 544 l 511 572 q 463 453 475 526 l 463 450 q 457 392 457 439 q 497 297 457 329 q 636 264 536 264 q 736 276 694 264 q 806 313 778 289 q 851 371 835 336 q 875 450 867 406 l 875 453 q 881 507 881 464 q 867 572 881 546 l 1222 572 l 1222 563 q 1219 510 1222 538 q 1211 453 1217 483 l 1211 450 q 1135 240 1189 326 q 1000 98 1081 153 q 815 18 919 43 q 588 -7 710 -7 m 701 640 q 658 638 678 640 q 622 633 639 636 l 186 633 q 408 844 263 779 q 749 910 554 910 q 926 894 846 910 q 1067 844 1007 878 q 1166 758 1128 811 q 1217 633 1204 706 l 776 633 q 701 640 738 640 m 808 976 l 783 1100 l 714 976 l 439 976 l 567 1206 l 1036 1206 l 1083 976 l 808 976 z "},"õ":{"ha":1179,"x_min":117,"x_max":1236,"o":"m 588 -7 q 392 13 479 -7 q 243 74 304 32 q 149 183 182 117 q 117 343 117 249 q 119 394 117 368 q 126 450 121 421 l 126 453 q 140 515 132 485 q 158 572 147 544 l 511 572 q 463 453 475 526 l 463 450 q 457 392 457 439 q 497 297 457 329 q 636 264 536 264 q 736 276 694 264 q 806 313 778 289 q 851 371 835 336 q 875 450 867 406 l 875 453 q 881 507 881 464 q 867 572 881 546 l 1222 572 l 1222 563 q 1219 510 1222 538 q 1211 453 1217 483 l 1211 450 q 1135 240 1189 326 q 1000 98 1081 153 q 815 18 919 43 q 588 -7 710 -7 m 701 640 q 658 638 678 640 q 622 633 639 636 l 186 633 q 408 844 263 779 q 749 910 554 910 q 926 894 846 910 q 1067 844 1007 878 q 1166 758 1128 811 q 1217 633 1204 706 l 776 633 q 701 640 738 640 m 696 976 l 671 1100 l 601 976 l 326 976 l 454 1206 l 867 1206 l 892 1082 l 961 1206 l 1236 1206 l 1108 976 l 696 976 z "},"ö":{"ha":1179,"x_min":117,"x_max":1222,"o":"m 588 -7 q 392 13 479 -7 q 243 74 304 32 q 149 183 182 117 q 117 343 117 249 q 119 394 117 368 q 126 450 121 421 l 126 453 q 140 515 132 485 q 158 572 147 544 l 511 572 q 463 453 475 526 l 463 450 q 457 392 457 439 q 497 297 457 329 q 636 264 536 264 q 736 276 694 264 q 806 313 778 289 q 851 371 835 336 q 875 450 867 406 l 875 453 q 881 507 881 464 q 867 572 881 546 l 1222 572 l 1222 563 q 1219 510 1222 538 q 1211 453 1217 483 l 1211 450 q 1135 240 1189 326 q 1000 98 1081 153 q 815 18 919 43 q 588 -7 710 -7 m 701 640 q 658 638 678 640 q 622 633 639 636 l 186 633 q 408 844 263 779 q 749 910 554 910 q 926 894 846 910 q 1067 844 1007 878 q 1166 758 1128 811 q 1217 633 1204 706 l 776 633 q 701 640 738 640 m 793 976 l 833 1206 l 1108 1206 l 1068 976 l 793 976 m 456 976 l 496 1206 l 771 1206 l 731 976 l 456 976 z "},"÷":{"ha":867,"x_min":108,"x_max":917,"o":"m 875 335 l 108 335 l 150 572 l 917 572 l 875 335 m 303 42 l 343 271 l 618 271 l 578 42 l 303 42 m 408 642 l 450 871 l 725 871 l 683 642 l 408 642 z "},"ø":{"ha":1176,"x_min":117,"x_max":1219,"o":"m 586 -7 q 390 13 478 -7 q 242 74 303 32 q 149 183 182 117 q 117 343 117 249 q 119 394 117 368 q 126 450 121 421 l 126 453 q 140 515 132 485 q 158 572 147 544 l 511 572 q 463 453 475 526 l 463 450 q 458 419 460 435 q 457 390 457 404 q 459 369 457 381 q 464 342 461 357 l 589 572 l 1219 572 l 1219 564 q 1217 510 1219 538 q 1208 453 1214 483 l 1208 450 q 1132 240 1186 326 q 998 98 1078 153 q 813 18 918 43 q 586 -7 708 -7 m 186 633 q 408 844 263 779 q 747 910 553 910 q 925 894 844 910 q 1065 844 1006 878 q 1163 758 1125 811 q 1214 633 1201 706 l 186 633 m 872 453 q 877 484 875 471 q 879 508 879 497 q 876 539 879 525 q 868 567 874 553 l 713 271 q 824 332 788 286 q 872 450 860 378 l 872 453 z "},"ù":{"ha":1075,"x_min":118,"x_max":1185,"o":"m 771 444 l 793 572 l 1126 572 l 1104 446 q 1035 244 1083 328 q 915 108 988 161 q 747 28 842 54 q 538 -3 651 1 q 361 22 439 1 q 229 82 283 42 q 147 184 175 122 q 118 332 118 246 q 121 386 118 358 q 129 446 124 414 l 151 572 l 482 572 l 460 444 q 456 417 457 431 q 454 393 454 404 q 485 309 454 339 q 586 272 515 279 q 716 324 675 282 q 771 444 757 365 m 161 633 l 210 906 l 542 906 l 493 633 l 161 633 m 804 633 l 853 906 l 1185 906 l 1136 633 l 804 633 m 590 976 l 543 1206 l 818 1206 l 865 976 l 590 976 z "},"ú":{"ha":1075,"x_min":118,"x_max":1185,"o":"m 460 444 q 456 417 457 431 q 454 393 454 404 q 485 309 454 339 q 586 272 515 279 q 716 324 675 282 q 771 444 757 365 l 793 572 l 1126 572 l 1104 446 q 1035 244 1083 328 q 915 108 988 161 q 747 28 842 54 q 538 -3 651 1 q 361 22 439 1 q 229 82 283 42 q 147 184 175 122 q 118 332 118 246 q 121 386 118 358 q 129 446 124 414 l 151 572 l 482 572 l 460 444 m 542 906 l 493 633 l 161 633 l 210 906 l 542 906 m 804 633 l 853 906 l 1185 906 l 1136 633 l 804 633 m 957 1206 l 829 976 l 554 976 l 682 1206 l 957 1206 z "},"û":{"ha":1075,"x_min":118,"x_max":1185,"o":"m 460 444 q 456 417 457 431 q 454 393 454 404 q 485 309 454 339 q 586 272 515 279 q 716 324 675 282 q 771 444 757 365 l 793 572 l 1126 572 l 1104 446 q 1035 244 1083 328 q 915 108 988 161 q 747 28 842 54 q 538 -3 651 1 q 361 22 439 1 q 229 82 283 42 q 147 184 175 122 q 118 332 118 246 q 121 386 118 358 q 129 446 124 414 l 151 572 l 482 572 l 460 444 m 757 976 l 732 1100 l 663 976 l 388 976 l 515 1206 l 985 1206 l 1032 976 l 757 976 m 542 906 l 493 633 l 161 633 l 210 906 l 542 906 m 804 633 l 853 906 l 1185 906 l 1136 633 l 804 633 z "},"ü":{"ha":1075,"x_min":118,"x_max":1185,"o":"m 771 444 l 793 572 l 1126 572 l 1104 446 q 1035 244 1083 328 q 915 108 988 161 q 747 28 842 54 q 538 -3 651 1 q 361 22 439 1 q 229 82 283 42 q 147 184 175 122 q 118 332 118 246 q 121 386 118 358 q 129 446 124 414 l 151 572 l 482 572 l 460 444 q 456 417 457 431 q 454 393 454 404 q 485 309 454 339 q 586 272 515 279 q 716 324 675 282 q 771 444 757 365 m 804 633 l 853 906 l 1185 906 l 1136 633 l 804 633 m 161 633 l 210 906 l 542 906 l 493 633 l 161 633 m 740 976 l 781 1206 l 1056 1206 l 1015 976 l 740 976 m 403 976 l 443 1206 l 718 1206 l 678 976 l 403 976 z "},"ý":{"ha":1076,"x_min":135,"x_max":1186,"o":"m 490 572 q 513 529 494 544 q 574 514 531 514 l 683 514 q 749 530 724 514 q 789 572 774 546 l 1126 572 l 1114 499 q 1073 408 1106 454 q 996 326 1040 363 q 903 267 951 290 q 814 244 854 244 l 746 244 l 703 0 l 374 0 l 417 244 l 349 244 q 274 264 313 244 q 205 316 236 283 q 154 389 174 349 q 135 471 135 429 q 135 485 135 478 q 138 499 136 492 l 150 572 l 490 572 m 493 644 q 492 639 492 643 q 490 633 492 635 l 161 633 l 210 906 l 539 906 l 493 644 m 808 633 q 810 639 810 635 q 811 644 810 643 l 857 906 l 1186 906 l 1138 633 l 808 633 m 957 1206 l 829 976 l 554 976 l 682 1206 l 957 1206 z "},"þ":{"ha":1076,"x_min":50,"x_max":1119,"o":"m 50 0 l 150 572 l 1118 572 q 1119 560 1118 565 q 1119 549 1119 554 q 1119 532 1119 540 q 1117 515 1118 524 l 1097 406 q 1056 310 1089 360 q 976 221 1022 261 q 877 155 931 181 q 774 129 824 129 l 401 129 l 379 0 l 50 0 m 161 633 l 210 906 l 539 906 l 518 790 l 890 790 q 958 778 925 790 q 1019 744 992 765 q 1069 694 1047 722 q 1103 633 1090 665 l 161 633 m 672 397 q 743 413 724 397 q 769 457 763 428 q 771 474 771 458 q 756 506 771 494 q 694 518 740 518 l 471 518 l 449 397 l 672 397 z "},"ÿ":{"ha":1076,"x_min":135,"x_max":1186,"o":"m 490 572 q 513 529 494 544 q 574 514 531 514 l 683 514 q 749 530 724 514 q 789 572 774 546 l 1126 572 l 1114 499 q 1073 408 1106 454 q 996 326 1040 363 q 903 267 951 290 q 814 244 854 244 l 746 244 l 703 0 l 374 0 l 417 244 l 349 244 q 274 264 313 244 q 205 316 236 283 q 154 389 174 349 q 135 471 135 429 q 135 485 135 478 q 138 499 136 492 l 150 572 l 490 572 m 493 644 q 492 639 492 643 q 490 633 492 635 l 161 633 l 210 906 l 539 906 l 493 644 m 808 633 q 810 639 810 635 q 811 644 810 643 l 857 906 l 1186 906 l 1138 633 l 808 633 m 403 976 l 443 1206 l 718 1206 l 678 976 l 403 976 m 740 976 l 781 1206 l 1056 1206 l 1015 976 l 740 976 z "}}}
